<svg id="svg" version="1.1" xmlns="http://www.w3.org/2000/svg" xmlns:xlink="http://www.w3.org/1999/xlink" width="400" height="120.77727952167415" viewBox="0, 0, 400,120.77727952167415"><g id="svgg"><path id="path0" d="M46.458 21.280 C 45.840 21.318,45.333 21.409,45.333 21.483 C 45.333 21.557,44.776 21.665,44.094 21.723 C 42.531 21.855,39.444 22.357,39.333 22.497 C 39.287 22.555,38.462 22.775,37.500 22.986 C 36.537 23.197,35.675 23.428,35.583 23.499 C 35.492 23.571,34.860 23.786,34.179 23.977 C 33.499 24.168,32.899 24.385,32.846 24.459 C 32.793 24.534,32.188 24.777,31.500 25.000 C 30.813 25.223,30.212 25.455,30.167 25.515 C 30.121 25.575,29.671 25.799,29.167 26.012 C 28.662 26.225,28.212 26.450,28.167 26.512 C 28.121 26.574,27.671 26.798,27.167 27.009 C 26.662 27.220,26.116 27.529,25.952 27.696 C 25.788 27.863,25.557 28.000,25.440 28.000 C 25.322 28.000,24.856 28.262,24.405 28.583 C 23.954 28.904,23.498 29.167,23.393 29.167 C 23.288 29.167,23.025 29.353,22.809 29.580 C 22.593 29.808,22.361 29.996,22.292 29.997 C 22.148 30.000,20.124 31.471,20.000 31.662 C 19.954 31.733,19.692 31.933,19.417 32.106 C 18.882 32.442,18.585 32.690,16.857 34.249 C 14.908 36.007,12.111 38.921,11.548 39.781 C 11.260 40.219,10.855 40.705,10.165 41.434 C 9.983 41.627,9.833 41.845,9.833 41.919 C 9.833 41.992,9.542 42.434,9.186 42.901 C 8.830 43.368,8.487 43.919,8.425 44.125 C 8.362 44.331,8.246 44.500,8.167 44.500 C 8.088 44.500,7.849 44.856,7.637 45.292 C 7.424 45.727,7.170 46.169,7.071 46.274 C 6.907 46.449,6.025 48.200,5.068 50.250 C 4.854 50.708,4.555 51.477,4.404 51.958 C 4.252 52.440,4.076 52.833,4.012 52.833 C 3.948 52.833,3.719 53.527,3.502 54.375 C 3.286 55.223,3.055 55.954,2.989 56.000 C 2.857 56.092,2.167 59.289,2.167 59.810 C 2.167 59.991,2.098 60.164,2.014 60.194 C 1.426 60.409,0.932 71.878,1.318 76.364 C 1.550 79.055,1.854 81.387,1.987 81.500 C 2.041 81.546,2.258 82.444,2.469 83.496 C 2.680 84.548,2.907 85.448,2.972 85.496 C 3.037 85.544,3.265 86.258,3.478 87.083 C 3.691 87.908,3.921 88.621,3.991 88.667 C 4.060 88.712,4.290 89.273,4.502 89.913 C 4.713 90.553,4.987 91.177,5.110 91.300 C 5.233 91.423,5.338 91.650,5.343 91.804 C 5.349 91.957,5.517 92.400,5.718 92.786 C 5.919 93.173,6.304 93.923,6.573 94.453 C 6.843 94.983,7.161 95.516,7.282 95.637 C 7.402 95.758,7.500 95.953,7.500 96.071 C 7.500 96.188,7.669 96.468,7.875 96.693 C 8.081 96.917,8.424 97.453,8.637 97.884 C 8.849 98.314,9.095 98.667,9.182 98.667 C 9.270 98.667,9.407 98.839,9.488 99.051 C 9.568 99.262,9.789 99.618,9.978 99.842 C 11.034 101.092,12.000 102.311,12.000 102.396 C 12.000 102.449,12.413 102.893,12.917 103.381 C 13.421 103.869,13.833 104.324,13.833 104.392 C 13.833 104.460,14.377 105.032,15.042 105.662 C 15.706 106.293,16.441 106.994,16.674 107.221 C 17.362 107.890,19.122 109.333,19.250 109.333 C 19.315 109.333,19.516 109.521,19.696 109.750 C 19.877 109.979,20.134 110.167,20.267 110.167 C 20.401 110.167,20.555 110.282,20.609 110.424 C 20.663 110.565,20.999 110.829,21.354 111.010 C 21.709 111.192,22.000 111.406,22.000 111.487 C 22.000 111.567,22.319 111.799,22.708 112.001 C 23.098 112.204,23.454 112.427,23.500 112.496 C 23.546 112.565,23.883 112.785,24.250 112.983 C 24.617 113.182,25.254 113.561,25.667 113.826 C 26.079 114.091,26.510 114.313,26.625 114.320 C 26.740 114.327,26.833 114.397,26.833 114.475 C 26.833 114.553,27.283 114.795,27.833 115.014 C 28.383 115.232,28.833 115.458,28.833 115.516 C 28.833 115.574,29.190 115.751,29.625 115.908 C 30.060 116.066,30.867 116.404,31.417 116.660 C 31.967 116.916,32.791 117.215,33.248 117.325 C 33.705 117.435,34.117 117.579,34.164 117.646 C 34.263 117.786,36.680 118.500,37.055 118.500 C 37.193 118.500,37.331 118.568,37.361 118.650 C 37.392 118.733,38.429 118.973,39.667 119.183 C 40.904 119.393,41.955 119.619,42.002 119.686 C 42.551 120.469,61.233 120.470,61.833 119.687 C 61.879 119.627,62.966 119.404,64.249 119.191 C 65.532 118.978,66.620 118.749,66.666 118.683 C 66.712 118.617,67.477 118.392,68.366 118.183 C 69.255 117.974,70.005 117.753,70.033 117.692 C 70.061 117.631,70.777 117.361,71.625 117.092 C 72.473 116.824,73.167 116.555,73.167 116.495 C 73.167 116.435,73.463 116.297,73.826 116.188 C 74.189 116.080,75.220 115.609,76.118 115.142 C 77.016 114.675,78.024 114.154,78.360 113.983 C 78.695 113.813,78.995 113.616,79.027 113.545 C 79.058 113.474,79.440 113.231,79.875 113.003 C 80.310 112.776,80.667 112.541,80.667 112.481 C 80.667 112.421,80.912 112.255,81.213 112.112 C 81.740 111.862,82.227 111.500,83.101 110.708 C 83.329 110.502,83.575 110.333,83.648 110.333 C 83.722 110.333,83.917 110.183,84.083 110.000 C 84.249 109.817,84.433 109.667,84.493 109.667 C 84.787 109.667,90.000 104.655,90.000 104.371 C 90.000 104.292,90.244 103.994,90.542 103.707 C 90.840 103.420,91.250 102.975,91.454 102.718 C 91.658 102.461,92.164 101.830,92.579 101.316 C 92.994 100.803,93.333 100.300,93.333 100.200 C 93.333 100.099,93.430 99.957,93.548 99.883 C 93.820 99.715,95.500 97.238,95.500 97.006 C 95.500 96.911,95.575 96.833,95.667 96.833 C 96.099 96.833,95.222 95.689,94.776 95.672 C 94.699 95.669,94.347 95.419,93.993 95.116 C 93.639 94.813,93.139 94.456,92.883 94.324 C 92.626 94.192,92.319 93.952,92.199 93.792 C 92.079 93.631,91.890 93.500,91.778 93.500 C 91.666 93.500,91.341 93.294,91.056 93.042 C 90.771 92.790,90.107 92.283,89.581 91.917 C 89.056 91.550,88.541 91.170,88.438 91.072 C 88.335 90.974,88.025 90.753,87.750 90.580 C 87.475 90.407,87.138 90.168,87.000 90.048 C 86.426 89.547,84.653 88.333,84.494 88.333 C 84.400 88.333,84.279 88.218,84.225 88.077 C 84.171 87.936,83.892 87.700,83.605 87.553 C 83.318 87.405,82.776 87.033,82.400 86.725 C 82.023 86.418,81.633 86.167,81.533 86.167 C 81.432 86.167,81.290 86.066,81.217 85.943 C 81.143 85.820,80.858 85.580,80.583 85.409 C 80.308 85.239,79.971 85.002,79.833 84.882 C 79.182 84.315,77.517 83.167,77.347 83.167 C 77.242 83.167,77.112 83.051,77.058 82.911 C 77.004 82.770,76.746 82.544,76.485 82.409 C 76.223 82.274,75.876 82.023,75.713 81.852 C 75.250 81.367,74.688 81.251,74.549 81.614 C 74.486 81.780,74.298 82.062,74.133 82.240 C 73.968 82.417,73.833 82.647,73.833 82.750 C 73.833 82.853,73.702 83.085,73.542 83.267 C 73.161 83.696,72.500 84.630,72.500 84.737 C 72.500 84.879,71.915 85.503,69.876 87.536 C 67.491 89.913,67.411 89.983,66.489 90.487 C 66.082 90.709,65.690 90.990,65.617 91.112 C 65.543 91.234,65.388 91.333,65.270 91.333 C 65.153 91.333,64.726 91.548,64.320 91.810 C 63.915 92.073,63.171 92.428,62.667 92.601 C 62.163 92.773,61.706 92.975,61.651 93.049 C 61.541 93.201,59.126 93.833,58.659 93.833 C 58.495 93.833,58.336 93.901,58.306 93.984 C 58.065 94.636,47.333 94.631,47.333 93.978 C 47.333 93.899,47.197 93.833,47.031 93.833 C 46.512 93.833,44.086 93.151,44.028 92.988 C 43.997 92.903,43.847 92.833,43.694 92.833 C 43.399 92.833,40.160 91.248,40.007 91.028 C 39.957 90.957,39.617 90.719,39.250 90.498 C 38.883 90.278,38.508 90.015,38.417 89.914 C 38.325 89.813,37.987 89.539,37.667 89.304 C 36.900 88.743,35.000 86.934,35.000 86.766 C 35.000 86.693,34.794 86.420,34.542 86.159 C 33.651 85.235,33.413 84.920,33.053 84.189 C 32.853 83.783,32.626 83.406,32.549 83.350 C 32.307 83.178,31.035 80.454,30.828 79.667 C 30.721 79.254,30.571 78.879,30.497 78.832 C 30.336 78.732,29.667 75.366,29.667 74.658 C 29.667 74.388,29.592 74.167,29.500 74.167 C 29.395 74.167,29.333 72.972,29.333 70.917 C 29.333 69.129,29.398 67.667,29.477 67.667 C 29.556 67.667,29.672 67.160,29.734 66.542 C 29.859 65.308,30.334 63.132,30.508 63.000 C 30.568 62.954,30.753 62.506,30.918 62.004 C 31.276 60.917,32.208 59.023,32.863 58.053 C 33.122 57.670,33.333 57.280,33.333 57.187 C 33.333 57.093,33.431 56.957,33.550 56.883 C 33.669 56.810,33.944 56.487,34.161 56.167 C 34.742 55.310,38.167 51.928,38.773 51.615 C 39.059 51.467,39.337 51.230,39.391 51.089 C 39.445 50.949,39.568 50.833,39.665 50.833 C 39.761 50.833,40.157 50.630,40.545 50.381 C 41.776 49.590,43.379 48.832,44.583 48.470 C 45.225 48.278,45.833 48.055,45.935 47.976 C 47.055 47.101,56.766 47.117,58.583 47.997 C 58.892 48.147,60.931 48.754,61.792 48.952 C 61.998 49.000,62.167 49.096,62.167 49.167 C 62.167 49.237,62.579 49.462,63.083 49.667 C 63.587 49.871,64.000 50.090,64.000 50.153 C 64.000 50.216,64.354 50.439,64.787 50.649 C 65.220 50.860,65.674 51.175,65.797 51.349 C 65.919 51.524,66.108 51.668,66.218 51.669 C 66.377 51.671,68.717 53.593,69.202 54.121 C 70.235 55.244,71.459 56.708,71.751 57.169 C 71.955 57.491,72.244 57.857,72.394 57.981 C 72.544 58.106,72.667 58.274,72.667 58.356 C 72.667 58.720,73.775 60.149,74.064 60.158 C 74.387 60.167,75.539 59.536,75.640 59.294 C 75.672 59.219,75.990 59.008,76.349 58.825 C 76.707 58.643,77.000 58.427,77.000 58.347 C 77.000 58.266,77.295 58.046,77.656 57.858 C 78.017 57.670,78.499 57.353,78.729 57.154 C 78.959 56.954,79.294 56.707,79.475 56.604 C 80.026 56.290,82.733 54.370,83.014 54.093 C 83.159 53.950,83.347 53.833,83.432 53.833 C 83.517 53.833,83.776 53.665,84.008 53.458 C 84.641 52.894,85.465 52.333,85.660 52.333 C 85.755 52.333,85.833 52.260,85.833 52.170 C 85.833 52.080,86.133 51.854,86.500 51.667 C 86.867 51.480,87.167 51.251,87.167 51.159 C 87.167 51.067,87.335 50.927,87.542 50.847 C 87.748 50.767,88.254 50.432,88.667 50.103 C 89.079 49.773,89.507 49.503,89.617 49.502 C 89.727 49.501,89.877 49.400,89.950 49.277 C 90.023 49.154,90.496 48.783,91.000 48.451 C 91.504 48.120,92.217 47.622,92.583 47.345 C 92.950 47.067,93.400 46.771,93.583 46.686 C 93.767 46.601,94.067 46.393,94.250 46.223 C 94.433 46.053,94.790 45.782,95.042 45.620 C 95.658 45.225,95.354 43.746,94.562 43.283 C 94.436 43.210,94.333 43.067,94.333 42.965 C 94.333 42.863,94.047 42.398,93.697 41.932 C 93.347 41.465,93.012 40.952,92.952 40.792 C 92.893 40.631,92.768 40.500,92.676 40.500 C 92.584 40.500,92.402 40.294,92.271 40.042 C 92.140 39.790,91.857 39.384,91.642 39.140 C 91.426 38.896,90.950 38.336,90.583 37.895 C 89.075 36.081,85.891 32.833,85.620 32.833 C 85.542 32.833,85.289 32.608,85.058 32.333 C 84.826 32.058,84.561 31.833,84.468 31.833 C 84.374 31.833,84.150 31.646,83.970 31.417 C 83.790 31.188,83.538 31.000,83.410 31.000 C 83.283 31.000,83.098 30.850,83.000 30.667 C 82.902 30.483,82.730 30.333,82.617 30.333 C 82.505 30.333,82.227 30.162,81.998 29.953 C 81.770 29.744,81.283 29.391,80.917 29.170 C 80.550 28.949,80.212 28.714,80.166 28.649 C 80.120 28.583,79.767 28.354,79.382 28.140 C 76.672 26.631,75.498 26.020,74.917 25.817 C 74.550 25.688,74.159 25.497,74.047 25.392 C 73.935 25.287,73.410 25.066,72.880 24.900 C 72.350 24.735,71.832 24.517,71.730 24.416 C 71.627 24.315,70.971 24.091,70.271 23.916 C 69.572 23.742,69.000 23.550,69.000 23.488 C 69.000 23.427,68.194 23.208,67.208 23.002 C 66.223 22.796,65.339 22.566,65.245 22.490 C 65.051 22.336,60.610 21.667,59.775 21.667 C 59.477 21.667,59.144 21.577,59.035 21.468 C 58.836 21.269,49.035 21.122,46.458 21.280 M102.000 70.826 L 102.000 118.500 115.833 118.500 L 129.667 118.500 129.667 104.293 L 129.667 90.087 130.042 90.502 C 130.388 90.885,130.830 91.484,131.793 92.873 C 132.359 93.690,132.714 94.156,133.083 94.567 C 133.267 94.770,133.519 95.130,133.643 95.366 C 133.767 95.602,134.122 96.085,134.431 96.439 C 134.741 96.794,134.995 97.174,134.997 97.286 C 134.999 97.397,135.150 97.569,135.333 97.667 C 135.517 97.765,135.667 97.944,135.667 98.065 C 135.667 98.186,135.835 98.471,136.042 98.699 C 136.610 99.327,137.167 100.132,137.167 100.327 C 137.167 100.422,137.234 100.500,137.317 100.500 C 137.399 100.500,137.632 100.779,137.833 101.121 C 138.035 101.462,138.342 101.842,138.517 101.964 C 138.691 102.086,138.833 102.257,138.833 102.344 C 138.833 102.432,139.265 103.075,139.792 103.774 C 140.319 104.472,140.890 105.278,141.060 105.564 C 141.231 105.849,141.419 106.121,141.477 106.167 C 141.742 106.374,143.167 108.324,143.167 108.478 C 143.167 108.572,143.271 108.710,143.399 108.783 C 143.527 108.857,143.797 109.198,143.999 109.542 C 144.201 109.885,144.429 110.167,144.505 110.167 C 144.581 110.167,144.812 110.504,145.018 110.917 C 145.224 111.329,145.448 111.667,145.516 111.667 C 145.584 111.667,145.810 111.948,146.019 112.292 C 146.228 112.635,146.496 112.977,146.616 113.050 C 146.735 113.123,146.833 113.274,146.833 113.385 C 146.833 113.496,147.005 113.773,147.215 114.002 C 147.426 114.230,147.857 114.784,148.174 115.233 C 148.491 115.682,148.954 116.319,149.204 116.649 C 149.454 116.980,149.849 117.531,150.081 117.875 L 150.504 118.500 168.085 118.500 C 180.932 118.500,185.667 118.450,185.667 118.314 C 185.667 118.211,185.460 117.889,185.208 117.597 C 184.956 117.305,184.487 116.737,184.167 116.333 C 183.846 115.929,183.470 115.482,183.331 115.339 C 183.192 115.196,182.893 114.818,182.667 114.500 C 182.440 114.182,182.141 113.804,182.002 113.661 C 181.864 113.518,181.487 113.072,181.167 112.669 C 180.114 111.348,179.334 110.424,178.914 109.998 C 178.686 109.768,178.500 109.495,178.500 109.392 C 178.500 109.289,178.313 109.082,178.083 108.932 C 177.854 108.782,177.667 108.553,177.667 108.424 C 177.667 108.295,177.442 108.029,177.167 107.833 C 176.892 107.638,176.667 107.375,176.667 107.251 C 176.667 107.126,176.479 106.877,176.250 106.696 C 176.021 106.516,175.833 106.318,175.833 106.257 C 175.833 106.195,175.538 105.794,175.178 105.364 C 174.817 104.935,174.030 103.983,173.429 103.250 C 171.631 101.057,171.428 100.812,171.164 100.523 C 171.026 100.370,170.735 99.997,170.519 99.693 C 170.302 99.389,169.966 98.963,169.771 98.746 C 169.576 98.528,169.229 98.118,169.000 97.834 C 168.771 97.550,168.358 97.059,168.083 96.742 C 167.808 96.424,167.418 95.959,167.216 95.707 C 167.014 95.456,166.245 94.518,165.508 93.624 C 164.770 92.730,164.167 91.933,164.167 91.852 C 164.167 91.771,163.979 91.582,163.750 91.432 C 163.521 91.282,163.333 91.065,163.333 90.950 C 163.333 90.835,163.127 90.542,162.875 90.299 C 162.414 89.854,162.189 89.588,160.717 87.750 C 160.277 87.200,159.832 86.675,159.728 86.583 C 158.900 85.851,159.070 85.167,160.079 85.167 C 160.206 85.167,160.409 85.069,160.530 84.951 C 160.651 84.832,161.181 84.560,161.708 84.348 C 162.235 84.135,162.667 83.911,162.667 83.849 C 162.667 83.787,163.079 83.555,163.583 83.333 C 164.087 83.111,164.500 82.868,164.500 82.793 C 164.500 82.718,164.631 82.610,164.792 82.554 C 164.952 82.497,165.474 82.162,165.951 81.809 C 166.428 81.456,166.889 81.167,166.974 81.167 C 167.059 81.167,167.251 80.979,167.401 80.750 C 167.551 80.521,167.761 80.333,167.867 80.333 C 167.973 80.333,168.292 80.090,168.576 79.792 C 168.860 79.494,169.447 78.958,169.880 78.602 C 170.313 78.245,170.667 77.889,170.667 77.810 C 170.667 77.731,171.079 77.257,171.583 76.757 C 172.088 76.257,172.500 75.780,172.500 75.697 C 172.500 75.613,172.675 75.366,172.889 75.148 C 173.103 74.929,173.421 74.492,173.597 74.178 C 173.773 73.863,174.048 73.469,174.208 73.303 C 174.369 73.136,174.500 72.902,174.500 72.781 C 174.500 72.661,174.634 72.417,174.797 72.240 C 174.961 72.062,175.268 71.510,175.481 71.013 C 175.694 70.515,175.956 70.020,176.064 69.912 C 176.172 69.804,176.443 69.161,176.666 68.483 C 176.889 67.805,177.132 67.207,177.205 67.155 C 177.278 67.103,177.497 66.316,177.692 65.405 C 177.887 64.495,178.100 63.712,178.166 63.667 C 178.942 63.122,178.941 47.500,178.165 47.500 C 178.099 47.500,177.997 47.144,177.937 46.710 C 177.792 45.653,177.318 43.771,177.170 43.667 C 177.105 43.621,176.891 43.050,176.695 42.398 C 176.499 41.747,175.992 40.547,175.569 39.732 C 175.146 38.917,174.656 37.969,174.480 37.625 C 174.303 37.281,174.104 37.000,174.037 37.000 C 173.970 37.000,173.810 36.764,173.682 36.475 C 173.554 36.186,173.329 35.829,173.181 35.681 C 173.033 35.533,172.737 35.166,172.523 34.866 C 172.042 34.190,169.077 31.167,168.895 31.167 C 168.822 31.167,168.572 30.970,168.340 30.730 C 167.758 30.130,165.963 28.837,165.708 28.835 C 165.594 28.834,165.500 28.760,165.500 28.671 C 165.500 28.581,165.219 28.365,164.875 28.190 C 164.531 28.015,163.505 27.489,162.595 27.023 C 161.686 26.556,160.561 26.049,160.095 25.896 C 159.630 25.743,159.212 25.563,159.167 25.495 C 159.121 25.428,158.408 25.206,157.583 25.002 C 156.758 24.797,156.003 24.565,155.905 24.486 C 155.687 24.310,151.814 23.667,150.972 23.667 C 150.631 23.667,150.330 23.574,150.292 23.458 C 150.237 23.293,145.217 23.240,126.111 23.201 L 102.000 23.151 102.000 70.826 M265.414 23.958 C 265.479 24.394,265.587 24.787,265.653 24.833 C 265.719 24.879,265.950 25.854,266.167 27.000 C 266.383 28.146,266.605 29.121,266.661 29.167 C 266.717 29.212,266.940 30.188,267.156 31.333 C 267.372 32.479,267.599 33.454,267.659 33.500 C 267.719 33.546,267.940 34.521,268.150 35.667 C 268.360 36.813,268.593 37.825,268.669 37.918 C 268.745 38.010,268.974 39.022,269.178 40.168 C 269.382 41.313,269.601 42.287,269.665 42.333 C 269.728 42.379,269.954 43.354,270.167 44.500 C 270.379 45.646,270.605 46.621,270.669 46.667 C 270.732 46.712,270.950 47.678,271.152 48.813 C 271.354 49.948,271.622 51.148,271.747 51.480 C 271.872 51.812,272.137 52.983,272.337 54.083 C 272.537 55.183,272.758 56.158,272.829 56.250 C 272.899 56.342,273.124 57.311,273.328 58.403 C 273.532 59.496,273.763 60.509,273.840 60.653 C 273.917 60.798,274.148 61.817,274.354 62.917 C 274.560 64.017,274.774 64.954,274.829 65.000 C 274.884 65.046,275.106 66.021,275.323 67.167 C 275.539 68.313,275.769 69.287,275.834 69.333 C 275.900 69.379,276.124 70.392,276.333 71.583 C 276.543 72.775,276.772 73.788,276.844 73.835 C 276.915 73.882,277.141 74.857,277.345 76.002 C 277.549 77.147,277.768 78.121,277.831 78.167 C 277.895 78.212,278.121 79.188,278.333 80.333 C 278.546 81.479,278.770 82.454,278.832 82.500 C 278.894 82.546,279.117 83.521,279.328 84.667 C 279.539 85.813,279.765 86.787,279.830 86.833 C 279.895 86.879,280.124 87.892,280.338 89.083 C 280.553 90.275,280.779 91.287,280.840 91.333 C 280.901 91.379,281.158 92.500,281.412 93.825 C 281.665 95.149,281.934 96.349,282.009 96.492 C 282.085 96.634,282.315 97.650,282.521 98.750 C 282.727 99.850,282.940 100.787,282.996 100.833 C 283.051 100.879,283.273 101.854,283.489 103.000 C 283.706 104.146,283.936 105.121,284.001 105.167 C 284.066 105.212,284.291 106.225,284.500 107.417 C 284.709 108.608,284.939 109.622,285.010 109.668 C 285.082 109.715,285.307 110.690,285.511 111.835 C 285.716 112.980,285.934 113.954,285.997 114.000 C 286.060 114.046,286.284 115.021,286.495 116.167 C 286.705 117.313,286.962 118.305,287.064 118.372 C 287.166 118.440,294.386 118.496,303.108 118.497 L 318.967 118.500 319.253 117.208 C 319.410 116.498,319.590 115.879,319.652 115.833 C 319.714 115.787,319.945 114.962,320.167 114.000 C 320.388 113.037,320.625 112.210,320.692 112.162 C 320.760 112.114,320.978 111.326,321.176 110.412 C 321.373 109.498,321.590 108.712,321.657 108.667 C 321.785 108.579,322.500 105.702,322.500 105.275 C 322.500 105.139,322.571 105.003,322.658 104.972 C 322.745 104.942,322.973 104.208,323.166 103.341 C 323.358 102.474,323.579 101.686,323.656 101.591 C 323.733 101.495,323.966 100.667,324.175 99.750 C 324.383 98.833,324.606 98.046,324.669 98.000 C 324.732 97.954,324.959 97.167,325.173 96.250 C 325.387 95.333,325.608 94.546,325.663 94.500 C 325.719 94.454,325.945 93.629,326.167 92.667 C 326.388 91.704,326.626 90.876,326.696 90.827 C 326.804 90.750,326.995 90.005,327.460 87.833 C 327.509 87.604,327.603 87.379,327.668 87.333 C 327.732 87.287,327.998 86.350,328.258 85.250 C 328.518 84.150,328.776 83.212,328.831 83.167 C 328.886 83.121,329.112 82.296,329.333 81.333 C 329.555 80.371,329.793 79.543,329.863 79.493 C 329.975 79.414,330.398 77.726,330.623 76.458 C 330.668 76.206,330.758 76.000,330.823 76.000 C 330.887 76.000,331.117 75.213,331.333 74.250 C 331.549 73.287,331.779 72.500,331.844 72.500 C 331.909 72.500,332.059 71.994,332.177 71.375 C 332.390 70.258,332.392 70.254,332.544 70.833 C 332.628 71.154,332.755 71.492,332.826 71.583 C 332.898 71.675,333.130 72.500,333.342 73.417 C 333.555 74.333,333.778 75.121,333.839 75.167 C 333.899 75.212,334.121 75.962,334.333 76.833 C 334.545 77.704,334.770 78.454,334.834 78.500 C 334.897 78.546,335.122 79.333,335.333 80.250 C 335.545 81.167,335.770 81.954,335.835 82.000 C 335.899 82.046,336.126 82.833,336.340 83.750 C 336.554 84.667,336.781 85.454,336.845 85.500 C 336.909 85.546,337.132 86.296,337.340 87.167 C 337.549 88.037,337.770 88.787,337.832 88.833 C 337.894 88.879,338.148 89.775,338.396 90.824 C 338.644 91.874,338.908 92.811,338.984 92.908 C 339.059 93.004,339.291 93.796,339.500 94.667 C 339.709 95.537,339.938 96.325,340.009 96.417 C 340.080 96.508,340.304 97.296,340.507 98.167 C 340.711 99.037,340.926 99.787,340.985 99.833 C 341.045 99.879,341.267 100.648,341.479 101.542 C 341.691 102.435,341.932 103.167,342.016 103.167 C 342.099 103.167,342.167 103.280,342.167 103.418 C 342.167 103.824,342.888 106.742,343.011 106.833 C 343.072 106.879,343.289 107.629,343.493 108.499 C 343.696 109.369,343.919 110.119,343.989 110.166 C 344.058 110.212,344.288 111.000,344.500 111.917 C 344.712 112.833,344.937 113.621,345.001 113.667 C 345.065 113.712,345.293 114.500,345.507 115.417 C 345.721 116.333,345.943 117.121,346.000 117.167 C 346.057 117.212,346.177 117.513,346.266 117.833 L 346.429 118.417 362.423 118.417 L 378.417 118.417 378.473 117.917 C 378.505 117.643,378.588 117.380,378.659 117.334 C 378.731 117.288,378.961 116.313,379.172 115.167 C 379.383 114.021,379.603 113.046,379.662 113.000 C 379.720 112.954,379.937 111.982,380.143 110.839 C 380.349 109.697,380.580 108.684,380.656 108.589 C 380.732 108.494,380.967 107.442,381.179 106.250 C 381.390 105.058,381.611 104.046,381.669 104.000 C 381.728 103.954,381.954 102.979,382.172 101.833 C 382.390 100.688,382.617 99.712,382.676 99.667 C 382.736 99.621,382.951 98.646,383.155 97.501 C 383.360 96.356,383.586 95.343,383.659 95.251 C 383.731 95.159,383.954 94.183,384.153 93.083 C 384.352 91.983,384.585 90.933,384.670 90.750 C 384.814 90.439,385.313 88.035,385.587 86.333 C 385.653 85.921,385.761 85.546,385.827 85.500 C 385.893 85.454,386.121 84.479,386.333 83.333 C 386.546 82.188,386.768 81.212,386.827 81.167 C 386.886 81.121,387.103 80.149,387.310 79.006 C 387.516 77.864,387.747 76.851,387.823 76.756 C 387.899 76.661,388.134 75.608,388.345 74.417 C 388.557 73.225,388.778 72.212,388.836 72.167 C 388.894 72.121,389.121 71.146,389.339 70.000 C 389.557 68.854,389.784 67.879,389.843 67.833 C 389.902 67.787,390.118 66.813,390.322 65.668 C 390.526 64.522,390.753 63.510,390.826 63.418 C 390.900 63.325,391.131 62.313,391.341 61.167 C 391.550 60.021,391.769 59.046,391.827 59.000 C 391.886 58.954,392.113 57.942,392.333 56.750 C 392.553 55.558,392.784 54.546,392.845 54.500 C 392.907 54.454,393.131 53.442,393.344 52.250 C 393.556 51.058,393.785 50.045,393.852 49.998 C 393.919 49.952,394.141 48.977,394.345 47.832 C 394.549 46.687,394.767 45.712,394.829 45.667 C 394.947 45.581,395.833 41.122,395.833 40.618 C 395.833 40.461,395.892 40.333,395.964 40.333 C 396.035 40.333,396.273 39.377,396.491 38.208 C 396.710 37.040,396.941 36.046,397.004 36.000 C 397.068 35.954,397.291 34.942,397.500 33.750 C 397.709 32.558,397.931 31.546,397.994 31.500 C 398.056 31.454,398.284 30.479,398.500 29.333 C 398.716 28.188,398.941 27.212,399.000 27.167 C 399.120 27.072,399.667 24.093,399.667 23.531 L 399.667 23.165 385.792 23.207 L 371.918 23.250 371.750 24.250 C 371.659 24.800,371.535 25.325,371.475 25.417 C 371.416 25.508,371.208 26.633,371.013 27.917 C 370.818 29.200,370.593 30.367,370.514 30.510 C 370.435 30.653,370.205 31.816,370.003 33.093 C 369.801 34.371,369.569 35.567,369.488 35.750 C 369.406 35.933,369.153 37.133,368.926 38.417 C 368.476 40.956,367.661 45.229,367.272 47.083 C 367.137 47.725,366.897 49.075,366.737 50.083 C 366.577 51.092,366.390 51.992,366.321 52.083 C 366.252 52.175,366.032 53.338,365.833 54.667 C 365.634 55.996,365.412 57.158,365.339 57.250 C 365.191 57.435,364.500 61.392,364.500 62.053 C 364.500 62.283,364.440 62.497,364.366 62.528 C 364.292 62.558,364.063 63.596,363.856 64.833 C 363.649 66.071,363.416 67.233,363.338 67.417 C 363.261 67.600,363.032 68.800,362.831 70.083 C 362.629 71.367,362.407 72.492,362.338 72.583 C 362.268 72.675,362.040 73.875,361.831 75.250 C 361.622 76.625,361.397 77.787,361.331 77.833 C 361.264 77.879,361.111 78.587,360.990 79.406 C 360.796 80.725,360.753 80.839,360.613 80.406 C 360.526 80.137,360.400 79.842,360.333 79.750 C 360.266 79.658,360.037 78.833,359.824 77.917 C 359.612 77.000,359.387 76.212,359.324 76.167 C 359.262 76.121,359.044 75.371,358.841 74.501 C 358.637 73.631,358.418 72.881,358.353 72.834 C 358.289 72.788,358.055 71.962,357.833 71.000 C 357.612 70.037,357.386 69.212,357.330 69.167 C 357.274 69.121,357.056 68.333,356.844 67.417 C 356.633 66.500,356.362 65.525,356.241 65.250 C 356.121 64.975,355.856 64.037,355.652 63.167 C 355.447 62.296,355.229 61.546,355.166 61.500 C 355.103 61.454,354.878 60.667,354.667 59.750 C 354.455 58.833,354.230 58.046,354.165 58.000 C 354.101 57.954,353.874 57.167,353.660 56.250 C 353.446 55.333,353.227 54.546,353.172 54.500 C 353.118 54.454,352.897 53.667,352.682 52.750 C 352.467 51.833,352.232 51.008,352.160 50.917 C 352.088 50.825,351.863 50.038,351.659 49.167 C 351.456 48.296,351.238 47.546,351.176 47.500 C 351.113 47.454,350.888 46.667,350.676 45.750 C 350.463 44.833,350.229 44.007,350.156 43.914 C 350.083 43.821,349.856 43.033,349.651 42.164 C 349.447 41.295,349.231 40.546,349.172 40.500 C 349.113 40.454,348.896 39.668,348.688 38.753 C 348.481 37.838,348.256 37.050,348.190 37.003 C 348.123 36.955,347.860 36.017,347.604 34.917 C 347.349 33.817,347.071 32.892,346.987 32.861 C 346.902 32.831,346.833 32.694,346.833 32.557 C 346.833 32.172,346.144 29.437,345.999 29.250 C 345.929 29.158,345.703 28.352,345.498 27.458 C 345.293 26.565,345.069 25.833,345.001 25.833 C 344.932 25.833,344.826 25.515,344.764 25.125 C 344.703 24.735,344.569 24.135,344.466 23.792 L 344.281 23.167 333.154 23.167 L 322.026 23.167 321.911 23.708 C 321.847 24.006,321.734 24.326,321.659 24.419 C 321.585 24.513,321.356 25.300,321.151 26.169 C 320.947 27.039,320.727 27.787,320.664 27.833 C 320.601 27.879,320.376 28.667,320.164 29.583 C 319.952 30.500,319.722 31.326,319.652 31.419 C 319.582 31.511,319.321 32.449,319.071 33.502 C 318.821 34.555,318.564 35.454,318.501 35.500 C 318.437 35.546,318.212 36.333,318.000 37.250 C 317.788 38.167,317.563 38.954,317.499 39.000 C 317.435 39.046,317.207 39.833,316.993 40.750 C 316.779 41.667,316.558 42.454,316.501 42.500 C 316.384 42.595,315.667 45.531,315.667 45.915 C 315.667 46.053,315.601 46.167,315.521 46.167 C 315.440 46.167,315.206 46.898,315.000 47.792 C 314.794 48.685,314.574 49.454,314.511 49.500 C 314.448 49.546,314.222 50.333,314.009 51.250 C 313.796 52.167,313.563 52.993,313.490 53.086 C 313.417 53.179,313.189 53.967,312.985 54.836 C 312.780 55.705,312.565 56.454,312.507 56.500 C 312.449 56.546,312.223 57.333,312.004 58.250 C 311.786 59.167,311.552 59.992,311.485 60.083 C 311.417 60.175,311.202 60.925,311.006 61.750 C 310.810 62.575,310.551 63.475,310.429 63.750 C 310.307 64.025,310.034 65.037,309.822 66.000 C 309.611 66.962,309.380 67.790,309.311 67.838 C 309.241 67.886,309.026 68.634,308.833 69.500 C 308.640 70.366,308.427 71.114,308.359 71.162 C 308.291 71.210,308.055 72.037,307.833 73.000 C 307.612 73.962,307.378 74.788,307.313 74.834 C 307.249 74.881,307.029 75.631,306.826 76.501 C 306.623 77.371,306.405 78.121,306.343 78.167 C 306.281 78.212,306.129 78.700,306.005 79.250 C 305.741 80.422,305.500 80.796,305.500 80.033 C 305.500 79.740,305.439 79.500,305.365 79.500 C 305.291 79.500,305.053 78.319,304.836 76.875 C 304.619 75.431,304.391 74.212,304.329 74.167 C 304.266 74.121,304.043 72.958,303.833 71.583 C 303.623 70.208,303.401 69.046,303.340 69.000 C 303.278 68.954,303.052 67.754,302.838 66.333 C 302.623 64.912,302.395 63.712,302.331 63.667 C 302.268 63.621,302.045 62.421,301.836 61.000 C 301.627 59.579,301.401 58.342,301.335 58.250 C 301.268 58.158,301.040 56.921,300.826 55.500 C 300.613 54.079,300.389 52.879,300.329 52.833 C 300.268 52.788,300.010 51.400,299.754 49.750 C 299.499 48.100,299.234 46.675,299.167 46.583 C 299.099 46.492,298.873 45.292,298.664 43.917 C 298.455 42.542,298.234 41.379,298.173 41.333 C 298.112 41.287,297.886 40.087,297.671 38.667 C 297.456 37.246,297.230 36.046,297.168 36.000 C 297.106 35.954,296.888 34.792,296.683 33.417 C 296.478 32.042,296.243 30.767,296.162 30.583 C 296.080 30.400,295.849 29.162,295.648 27.833 C 295.447 26.504,295.228 25.379,295.161 25.333 C 295.095 25.287,294.986 24.781,294.920 24.208 L 294.801 23.167 280.048 23.167 L 265.295 23.167 265.414 23.958 M141.960 47.963 C 141.997 48.075,142.194 48.167,142.398 48.167 C 142.934 48.167,145.866 48.952,145.984 49.127 C 146.038 49.208,146.414 49.457,146.819 49.679 C 147.740 50.186,148.911 51.388,149.282 52.208 C 149.437 52.552,149.616 52.833,149.680 52.833 C 150.685 52.833,150.706 61.333,149.703 61.982 C 149.617 62.038,149.431 62.308,149.289 62.583 C 148.923 63.296,147.652 64.536,146.895 64.920 C 146.540 65.100,146.137 65.334,146.000 65.440 C 145.695 65.676,143.514 66.333,143.038 66.333 C 142.849 66.333,142.663 66.427,142.625 66.542 C 142.572 66.702,141.078 66.763,136.111 66.807 L 129.667 66.864 129.667 57.246 L 129.667 47.628 135.779 47.693 C 140.406 47.743,141.908 47.808,141.960 47.963 M188.500 106.667 L 188.500 118.500 225.083 118.500 L 261.667 118.500 261.667 106.667 L 261.667 94.833 225.083 94.833 L 188.500 94.833 188.500 106.667 " stroke="none" fill="#fcfc04" fill-rule="evenodd"></path><path id="path1" d="M226.839 8.764 C 226.521 8.902,226.221 9.067,226.172 9.132 C 226.039 9.309,224.856 9.833,224.590 9.833 C 224.462 9.833,224.258 9.930,224.137 10.049 C 224.016 10.167,223.654 10.368,223.333 10.495 C 222.035 11.009,220.000 12.025,220.000 12.159 C 220.000 12.238,219.850 12.263,219.667 12.215 C 219.480 12.166,219.333 12.210,219.333 12.314 C 219.333 12.416,219.241 12.500,219.128 12.500 C 218.711 12.500,217.167 13.235,217.167 13.434 C 217.167 13.547,223.130 16.617,230.419 20.256 C 237.707 23.895,243.709 26.934,243.756 27.009 C 243.857 27.174,244.833 26.860,244.833 26.664 C 244.833 26.588,245.227 26.398,245.708 26.241 C 246.190 26.084,246.996 25.748,247.500 25.494 C 249.512 24.481,253.472 22.667,253.670 22.667 C 253.760 22.667,253.833 22.598,253.833 22.514 C 253.833 22.430,254.020 22.299,254.248 22.222 C 254.587 22.109,227.922 8.451,227.470 8.507 C 227.441 8.510,227.157 8.626,226.839 8.764 M206.333 18.303 C 206.333 18.436,204.721 19.167,204.427 19.167 C 204.344 19.167,204.158 19.268,204.013 19.392 C 203.868 19.516,203.319 19.792,202.792 20.006 C 202.265 20.220,201.833 20.456,201.833 20.531 C 201.833 20.605,201.727 20.667,201.597 20.667 C 201.309 20.667,199.790 21.306,199.670 21.478 C 199.622 21.546,199.321 21.699,199.000 21.818 C 198.140 22.135,195.845 23.237,195.842 23.333 C 195.841 23.379,199.195 25.088,203.295 27.131 C 207.395 29.174,213.469 32.215,216.792 33.890 C 220.115 35.564,222.833 36.882,222.833 36.817 C 222.833 36.753,223.208 36.565,223.667 36.400 C 224.125 36.236,224.500 36.036,224.500 35.957 C 224.500 35.878,224.575 35.860,224.667 35.917 C 224.758 35.973,224.833 35.954,224.833 35.874 C 224.833 35.794,225.321 35.556,225.917 35.346 C 226.512 35.136,227.000 34.905,227.000 34.833 C 227.000 34.714,227.638 34.486,227.833 34.536 C 227.879 34.547,228.232 34.358,228.618 34.114 C 229.045 33.844,229.430 33.714,229.603 33.781 C 229.787 33.851,229.848 33.825,229.776 33.708 C 229.676 33.546,230.454 33.180,231.150 33.062 C 231.278 33.040,231.441 32.929,231.512 32.815 C 231.582 32.700,231.958 32.489,232.348 32.345 C 233.323 31.985,233.313 31.799,232.295 31.312 C 227.830 29.179,206.667 18.460,206.667 18.332 C 206.667 18.241,206.592 18.167,206.500 18.167 C 206.408 18.167,206.333 18.228,206.333 18.303 M184.708 28.370 C 184.502 28.470,184.333 28.614,184.333 28.692 C 184.333 28.770,184.200 28.833,184.037 28.833 C 183.874 28.833,183.180 29.117,182.495 29.465 C 181.810 29.812,180.931 30.199,180.542 30.325 C 180.152 30.450,179.833 30.611,179.833 30.680 C 179.833 30.750,179.571 30.894,179.250 31.000 C 178.508 31.245,178.507 31.503,179.243 32.950 C 180.143 34.720,181.000 36.615,181.000 36.835 C 181.000 36.950,181.113 36.992,181.264 36.934 C 181.482 36.851,199.769 45.818,201.102 46.662 C 201.449 46.882,203.333 46.317,203.333 45.992 C 203.333 45.930,203.748 45.748,204.255 45.589 C 204.762 45.429,205.269 45.210,205.380 45.101 C 205.492 44.992,205.846 44.799,206.167 44.672 C 206.487 44.545,207.361 44.154,208.108 43.804 C 208.855 43.453,209.549 43.167,209.650 43.167 C 209.751 43.167,209.833 43.097,209.833 43.011 C 209.833 42.926,210.002 42.807,210.208 42.748 C 211.079 42.499,211.999 42.071,211.999 41.916 C 212.000 41.825,206.043 38.770,198.762 35.129 C 191.482 31.487,185.477 28.431,185.419 28.337 C 185.292 28.131,185.194 28.136,184.708 28.370 M202.489 59.293 C 202.208 59.784,199.158 63.660,191.334 73.469 L 188.500 77.022 188.500 79.678 L 188.500 82.333 192.417 82.333 C 194.571 82.333,196.333 82.268,196.333 82.188 C 196.333 82.108,196.979 81.226,197.768 80.229 C 199.242 78.368,203.873 72.527,208.574 66.600 C 210.036 64.758,211.955 62.347,212.839 61.244 C 214.934 58.629,215.312 58.833,208.382 58.834 L 202.750 58.835 202.489 59.293 M249.499 59.042 C 249.499 59.156,248.842 60.078,248.041 61.090 C 247.239 62.103,244.483 65.578,241.917 68.814 C 239.350 72.050,237.063 74.944,236.833 75.247 C 236.604 75.549,235.742 76.649,234.918 77.690 C 233.038 80.065,233.161 79.911,232.273 80.996 C 231.862 81.497,231.562 81.966,231.606 82.037 C 231.650 82.108,234.264 82.167,237.415 82.167 L 243.143 82.167 245.863 78.727 C 247.359 76.835,249.689 73.891,251.041 72.185 C 252.393 70.479,255.130 67.023,257.124 64.504 C 259.119 61.986,260.956 59.711,261.208 59.450 C 261.460 59.188,261.667 58.943,261.667 58.904 C 261.667 58.865,258.929 58.833,255.583 58.833 C 250.828 58.833,249.500 58.879,249.499 59.042 M225.776 59.697 C 225.516 60.073,224.282 61.664,223.036 63.232 C 221.789 64.800,220.056 66.983,219.184 68.083 C 210.801 78.659,208.167 82.006,208.167 82.085 C 208.167 82.130,210.785 82.167,213.985 82.167 L 219.802 82.167 221.688 79.792 C 222.725 78.485,224.734 75.954,226.153 74.167 C 232.211 66.534,233.199 65.291,235.091 62.918 C 237.227 60.239,238.000 59.220,238.000 59.085 C 238.000 59.038,235.356 59.003,232.125 59.006 L 226.250 59.013 225.776 59.697 " stroke="none" fill="#050505" fill-rule="evenodd"></path><path id="path2" d="M243.907 0.911 C 243.729 1.046,243.208 1.282,242.750 1.436 C 242.292 1.590,241.757 1.839,241.563 1.990 C 241.368 2.141,240.787 2.408,240.271 2.584 C 239.755 2.759,239.333 2.962,239.333 3.035 C 239.333 3.107,239.248 3.167,239.144 3.167 C 239.039 3.167,238.345 3.455,237.602 3.807 C 236.858 4.159,235.894 4.591,235.459 4.765 C 235.024 4.940,234.668 5.133,234.667 5.195 C 234.667 5.256,234.179 5.468,233.583 5.667 C 232.987 5.865,232.500 6.089,232.500 6.165 C 232.500 6.241,232.012 6.478,231.417 6.692 C 230.821 6.906,230.333 7.128,230.333 7.187 C 230.333 7.245,229.883 7.461,229.333 7.667 C 228.783 7.872,228.333 8.106,228.333 8.187 C 228.333 8.267,228.165 8.337,227.958 8.341 C 227.752 8.345,230.171 9.648,233.333 11.235 C 250.326 19.765,254.542 21.847,254.637 21.752 C 254.694 21.695,254.661 21.596,254.563 21.533 C 254.466 21.469,254.249 21.042,254.081 20.583 C 253.914 20.125,253.689 19.637,253.582 19.500 C 253.475 19.362,253.211 18.800,252.995 18.250 C 252.780 17.700,252.560 17.212,252.505 17.167 C 252.451 17.121,252.191 16.540,251.927 15.875 C 251.663 15.210,251.399 14.667,251.341 14.667 C 251.283 14.667,251.094 14.250,250.921 13.741 C 250.748 13.232,250.547 12.779,250.475 12.734 C 250.303 12.628,249.667 11.189,249.667 10.907 C 249.667 10.788,249.569 10.591,249.451 10.470 C 249.332 10.349,249.060 9.819,248.848 9.292 C 248.635 8.765,248.395 8.333,248.314 8.333 C 248.233 8.333,248.166 8.202,248.166 8.042 C 248.166 7.881,247.899 7.225,247.572 6.583 C 247.246 5.942,246.862 5.079,246.720 4.667 C 246.577 4.254,246.399 3.878,246.324 3.830 C 246.145 3.717,245.500 2.207,245.500 1.903 C 245.500 1.773,245.432 1.667,245.350 1.667 C 245.267 1.667,245.121 1.442,245.025 1.167 C 244.831 0.611,244.427 0.518,243.907 0.911 M215.919 13.862 C 215.463 14.042,215.050 14.246,215.003 14.316 C 214.955 14.385,214.467 14.623,213.917 14.844 C 213.367 15.066,212.879 15.292,212.833 15.347 C 212.787 15.402,212.386 15.585,211.941 15.753 C 211.496 15.921,211.046 16.142,210.941 16.245 C 210.836 16.347,210.266 16.606,209.676 16.820 C 209.085 17.033,208.500 17.310,208.376 17.433 C 208.253 17.557,207.855 17.738,207.492 17.835 C 207.130 17.933,206.833 18.104,206.834 18.215 C 206.834 18.326,212.715 21.360,219.904 24.957 C 227.093 28.555,233.087 31.611,233.225 31.748 C 233.475 31.998,234.000 31.931,234.000 31.649 C 234.000 31.567,234.128 31.500,234.285 31.500 C 234.442 31.500,235.173 31.209,235.910 30.854 C 239.390 29.177,240.153 28.833,240.400 28.833 C 240.547 28.833,240.667 28.769,240.667 28.690 C 240.667 28.611,241.084 28.387,241.593 28.192 C 242.103 27.997,242.633 27.724,242.772 27.585 C 242.910 27.447,243.178 27.333,243.366 27.333 C 244.169 27.333,242.713 26.557,230.197 20.311 C 222.984 16.712,217.058 13.707,217.028 13.634 C 216.956 13.462,216.909 13.471,215.919 13.862 M195.333 23.498 C 195.196 23.578,194.483 23.917,193.750 24.252 C 193.017 24.587,191.817 25.150,191.083 25.504 C 190.350 25.857,189.544 26.196,189.292 26.258 C 189.040 26.319,188.833 26.429,188.833 26.502 C 188.833 26.575,188.607 26.713,188.330 26.810 C 187.302 27.168,185.503 28.088,185.550 28.232 C 185.577 28.314,191.613 31.390,198.964 35.067 L 212.328 41.754 213.223 41.419 C 213.715 41.234,214.222 41.001,214.351 40.900 C 214.479 40.800,215.015 40.542,215.542 40.328 C 216.069 40.114,216.500 39.877,216.500 39.803 C 216.500 39.728,216.606 39.667,216.736 39.667 C 217.041 39.667,218.550 39.021,218.663 38.842 C 218.711 38.767,219.088 38.591,219.500 38.451 C 219.912 38.311,220.689 37.964,221.225 37.681 C 221.762 37.398,222.320 37.167,222.467 37.167 C 222.989 37.167,222.277 36.795,209.204 30.243 C 201.937 26.601,195.952 23.557,195.903 23.477 C 195.795 23.303,195.662 23.307,195.333 23.498 M181.433 37.458 C 181.491 37.710,181.743 38.292,181.993 38.750 C 182.243 39.208,182.588 39.958,182.759 40.417 C 182.931 40.875,183.167 41.349,183.285 41.470 C 183.403 41.591,183.500 41.756,183.500 41.835 C 183.500 41.915,183.800 42.618,184.167 43.397 C 184.533 44.176,184.833 44.881,184.833 44.964 C 184.833 45.048,184.983 45.289,185.167 45.500 C 185.350 45.711,185.500 45.998,185.500 46.138 C 185.500 46.277,185.795 46.997,186.156 47.737 C 187.518 50.535,188.167 51.947,188.167 52.117 C 188.167 52.683,189.767 52.734,190.167 52.181 C 190.213 52.118,190.662 51.892,191.167 51.679 C 191.671 51.466,192.121 51.240,192.167 51.177 C 192.213 51.114,192.719 50.889,193.292 50.677 C 193.865 50.466,194.333 50.242,194.333 50.179 C 194.333 50.117,194.727 49.928,195.208 49.759 C 195.690 49.590,196.196 49.362,196.333 49.253 C 196.471 49.143,197.033 48.876,197.583 48.660 C 198.133 48.444,198.808 48.140,199.083 47.986 C 199.358 47.832,199.942 47.574,200.381 47.412 C 200.819 47.250,201.152 47.038,201.120 46.942 C 201.065 46.779,181.736 37.009,181.455 37.003 C 181.385 37.001,181.375 37.206,181.433 37.458 M188.500 67.783 C 188.500 73.146,188.561 76.670,188.651 76.575 C 188.860 76.356,190.919 73.789,192.917 71.256 C 193.833 70.094,195.339 68.192,196.263 67.030 C 201.658 60.242,202.500 59.158,202.500 59.004 C 202.500 58.890,200.157 58.833,195.500 58.833 L 188.500 58.833 188.500 67.783 M214.437 59.125 C 214.484 59.314,213.818 60.278,212.546 61.861 C 211.467 63.205,209.383 65.818,207.917 67.667 C 206.450 69.515,204.575 71.876,203.750 72.914 C 199.268 78.550,196.726 81.760,196.532 82.030 C 196.323 82.322,196.539 82.333,202.157 82.333 C 206.331 82.333,208.000 82.280,208.000 82.148 C 208.000 82.046,208.544 81.278,209.208 80.441 C 209.873 79.604,210.506 78.806,210.615 78.668 C 210.724 78.530,211.511 77.540,212.365 76.468 C 213.218 75.396,214.367 73.946,214.917 73.245 C 215.467 72.544,216.592 71.120,217.417 70.080 C 218.242 69.041,219.648 67.266,220.542 66.137 C 221.435 65.007,223.029 62.996,224.083 61.667 C 225.137 60.337,225.999 59.206,226.000 59.152 C 226.000 59.044,219.656 58.833,216.405 58.833 C 214.545 58.833,214.371 58.859,214.437 59.125 M238.167 59.137 C 238.167 59.213,237.185 60.507,235.985 62.012 C 234.785 63.518,233.604 65.005,233.360 65.317 C 233.116 65.629,232.242 66.730,231.417 67.763 C 230.592 68.797,229.167 70.596,228.250 71.761 C 227.333 72.927,226.244 74.301,225.829 74.815 C 223.723 77.424,220.000 82.169,220.000 82.246 C 220.000 82.294,222.550 82.333,225.667 82.333 C 229.663 82.333,231.333 82.280,231.333 82.151 C 231.333 81.960,232.636 80.287,240.167 70.809 C 241.313 69.367,242.979 67.264,243.871 66.135 C 244.763 65.007,246.355 62.996,247.409 61.667 C 248.463 60.337,249.327 59.194,249.329 59.125 C 249.331 59.056,246.821 59.000,243.750 59.000 C 240.679 59.000,238.167 59.062,238.167 59.137 M260.409 60.605 C 259.863 61.305,258.742 62.725,257.917 63.761 C 255.746 66.486,253.249 69.635,251.514 71.833 C 250.683 72.887,249.553 74.313,249.005 75.000 C 247.604 76.754,244.522 80.634,243.875 81.458 C 243.577 81.837,243.333 82.189,243.333 82.240 C 243.333 82.291,247.458 82.333,252.500 82.333 L 261.667 82.333 261.667 70.833 C 261.667 64.508,261.607 59.333,261.534 59.333 C 261.461 59.333,260.955 59.906,260.409 60.605 " stroke="none" fill="#f2f2f2" fill-rule="evenodd"></path><path id="path3" d="M227.833 8.582 C 227.833 8.696,228.854 9.202,228.930 9.125 C 228.966 9.089,228.734 8.935,228.415 8.783 C 228.095 8.630,227.833 8.540,227.833 8.582 M229.167 9.250 C 229.167 9.360,234.853 12.202,234.927 12.129 C 234.958 12.097,233.675 11.418,232.076 10.620 C 230.476 9.821,229.167 9.205,229.167 9.250 M235.167 12.249 C 235.167 12.361,237.187 13.369,237.262 13.294 C 237.295 13.260,236.838 12.994,236.245 12.701 C 235.652 12.409,235.167 12.205,235.167 12.249 M237.500 13.414 C 237.500 13.460,238.325 13.911,239.333 14.417 C 240.342 14.922,241.167 15.299,241.167 15.253 C 241.167 15.207,240.342 14.756,239.333 14.250 C 238.325 13.744,237.500 13.368,237.500 13.414 M217.130 13.706 C 217.325 13.940,218.000 14.224,218.000 14.072 C 218.000 14.037,217.756 13.883,217.458 13.729 C 217.000 13.492,216.950 13.488,217.130 13.706 M218.911 14.657 C 218.959 14.736,219.227 14.880,219.505 14.977 C 219.784 15.074,219.971 15.089,219.923 15.010 C 219.874 14.931,219.606 14.787,219.328 14.690 C 219.050 14.593,218.862 14.578,218.911 14.657 M241.347 15.397 C 241.517 15.552,243.167 16.330,243.167 16.256 C 243.167 16.162,241.575 15.333,241.394 15.333 C 241.330 15.333,241.309 15.362,241.347 15.397 M221.074 15.755 C 221.251 15.890,221.476 15.998,221.574 15.995 C 221.671 15.992,221.604 15.879,221.426 15.745 C 221.249 15.610,221.024 15.502,220.926 15.505 C 220.829 15.508,220.896 15.621,221.074 15.755 M243.347 16.397 C 243.517 16.552,245.167 17.330,245.167 17.256 C 245.167 17.162,243.575 16.333,243.394 16.333 C 243.330 16.333,243.309 16.362,243.347 16.397 M222.911 16.657 C 222.959 16.736,223.227 16.880,223.505 16.977 C 223.784 17.074,223.971 17.089,223.923 17.010 C 223.874 16.931,223.606 16.787,223.328 16.690 C 223.050 16.593,222.862 16.578,222.911 16.657 M245.347 17.397 C 245.517 17.552,247.167 18.330,247.167 18.256 C 247.167 18.162,245.575 17.333,245.394 17.333 C 245.330 17.333,245.309 17.362,245.347 17.397 M225.258 17.802 C 225.474 17.986,226.333 18.345,226.333 18.251 C 226.333 18.159,225.400 17.667,225.225 17.667 C 225.156 17.667,225.171 17.727,225.258 17.802 M206.669 18.291 C 206.667 18.475,216.474 23.514,216.791 23.491 C 216.860 23.486,214.667 22.352,211.917 20.971 C 209.167 19.590,206.862 18.375,206.794 18.272 C 206.707 18.137,206.671 18.143,206.669 18.291 M247.347 18.397 C 247.517 18.552,249.167 19.330,249.167 19.256 C 249.167 19.162,247.575 18.333,247.394 18.333 C 247.330 18.333,247.309 18.362,247.347 18.397 M226.911 18.657 C 226.959 18.736,227.227 18.880,227.505 18.977 C 227.784 19.074,227.971 19.089,227.923 19.010 C 227.874 18.931,227.606 18.787,227.328 18.690 C 227.050 18.593,226.862 18.578,226.911 18.657 M228.833 19.588 C 228.833 19.669,229.766 20.167,229.918 20.167 C 229.974 20.167,229.978 20.099,229.927 20.016 C 229.829 19.858,228.833 19.467,228.833 19.588 M249.681 19.563 C 249.851 19.718,251.500 20.497,251.500 20.422 C 251.500 20.328,249.908 19.500,249.728 19.500 C 249.664 19.500,249.642 19.528,249.681 19.563 M251.681 20.563 C 251.851 20.717,253.167 21.331,253.167 21.257 C 253.167 21.162,251.909 20.500,251.729 20.500 C 251.664 20.500,251.642 20.528,251.681 20.563 M231.258 20.802 C 231.474 20.986,232.333 21.345,232.333 21.251 C 232.333 21.159,231.400 20.667,231.225 20.667 C 231.156 20.667,231.171 20.727,231.258 20.802 M233.421 21.889 C 233.803 22.147,234.333 22.356,234.333 22.249 C 234.333 22.157,233.397 21.667,233.221 21.667 C 233.150 21.667,233.240 21.767,233.421 21.889 M235.240 22.817 C 235.338 22.976,236.333 23.366,236.333 23.246 C 236.333 23.164,235.400 22.667,235.248 22.667 C 235.193 22.667,235.189 22.734,235.240 22.817 M217.000 23.578 C 217.000 23.624,217.375 23.851,217.833 24.083 C 218.292 24.316,218.667 24.468,218.667 24.422 C 218.667 24.376,218.292 24.149,217.833 23.917 C 217.375 23.684,217.000 23.532,217.000 23.578 M196.333 23.754 C 196.333 23.836,197.266 24.333,197.418 24.333 C 197.474 24.333,197.478 24.266,197.427 24.183 C 197.329 24.024,196.333 23.634,196.333 23.754 M237.258 23.802 C 237.474 23.986,238.333 24.345,238.333 24.251 C 238.333 24.159,237.400 23.667,237.225 23.667 C 237.156 23.667,237.171 23.727,237.258 23.802 M198.333 24.754 C 198.333 24.836,199.266 25.333,199.418 25.333 C 199.474 25.333,199.478 25.266,199.427 25.183 C 199.329 25.024,198.333 24.634,198.333 24.754 M219.181 24.730 C 219.351 24.884,220.667 25.498,220.667 25.423 C 220.667 25.329,219.409 24.667,219.229 24.667 C 219.164 24.667,219.142 24.695,219.181 24.730 M239.421 24.889 C 239.803 25.147,240.333 25.356,240.333 25.249 C 240.333 25.157,239.397 24.667,239.221 24.667 C 239.150 24.667,239.240 24.767,239.421 24.889 M200.333 25.754 C 200.333 25.836,201.266 26.333,201.418 26.333 C 201.474 26.333,201.478 26.266,201.427 26.183 C 201.329 26.024,200.333 25.634,200.333 25.754 M221.181 25.730 C 221.351 25.884,222.667 26.498,222.667 26.423 C 222.667 26.329,221.409 25.667,221.229 25.667 C 221.164 25.667,221.142 25.695,221.181 25.730 M241.421 25.883 C 241.850 26.164,242.667 26.514,242.667 26.416 C 242.667 26.324,241.398 25.667,241.220 25.667 C 241.150 25.667,241.240 25.764,241.421 25.883 M202.333 26.754 C 202.333 26.836,203.266 27.333,203.418 27.333 C 203.474 27.333,203.478 27.266,203.427 27.183 C 203.329 27.024,202.333 26.634,202.333 26.754 M223.181 26.730 C 223.351 26.885,225.000 27.664,225.000 27.589 C 225.000 27.495,223.408 26.667,223.228 26.667 C 223.164 26.667,223.142 26.695,223.181 26.730 M225.181 27.730 C 225.351 27.885,227.000 28.664,227.000 28.589 C 227.000 28.495,225.408 27.667,225.228 27.667 C 225.164 27.667,225.142 27.695,225.181 27.730 M204.907 28.089 C 205.085 28.223,205.310 28.331,205.407 28.328 C 205.504 28.325,205.438 28.213,205.260 28.078 C 205.082 27.943,204.857 27.836,204.760 27.839 C 204.663 27.842,204.729 27.954,204.907 28.089 M186.167 28.750 C 186.167 28.859,200.187 35.869,200.260 35.796 C 200.291 35.765,197.132 34.148,193.241 32.203 C 189.350 30.258,186.167 28.704,186.167 28.750 M227.181 28.730 C 227.351 28.884,228.667 29.498,228.667 29.423 C 228.667 29.329,227.409 28.667,227.229 28.667 C 227.164 28.667,227.142 28.695,227.181 28.730 M206.740 28.984 C 206.838 29.142,207.833 29.533,207.833 29.412 C 207.833 29.331,206.900 28.833,206.748 28.833 C 206.693 28.833,206.689 28.901,206.740 28.984 M229.181 29.730 C 229.351 29.884,230.667 30.498,230.667 30.423 C 230.667 30.329,229.409 29.667,229.229 29.667 C 229.164 29.667,229.142 29.695,229.181 29.730 M208.740 29.984 C 208.838 30.142,209.833 30.533,209.833 30.412 C 209.833 30.331,208.900 29.833,208.748 29.833 C 208.693 29.833,208.689 29.901,208.740 29.984 M210.667 30.913 C 210.667 31.010,211.933 31.667,212.118 31.666 C 212.280 31.665,210.967 30.846,210.792 30.839 C 210.723 30.836,210.667 30.869,210.667 30.913 M231.592 30.968 C 231.807 31.152,232.667 31.511,232.667 31.417 C 232.667 31.325,231.733 30.833,231.558 30.833 C 231.490 30.833,231.505 30.894,231.592 30.968 M212.333 31.749 C 212.333 31.861,214.020 32.702,214.095 32.627 C 214.129 32.593,213.747 32.364,213.245 32.118 C 212.744 31.872,212.333 31.706,212.333 31.749 M214.333 32.749 C 214.333 32.861,216.020 33.702,216.095 33.627 C 216.129 33.593,215.747 33.364,215.245 33.118 C 214.744 32.872,214.333 32.706,214.333 32.749 M216.667 33.915 C 216.667 34.028,218.020 34.702,218.096 34.626 C 218.131 34.591,217.823 34.400,217.413 34.200 C 217.003 34.001,216.667 33.873,216.667 33.915 M218.667 34.915 C 218.667 35.028,220.020 35.702,220.096 35.626 C 220.131 35.591,219.823 35.400,219.413 35.200 C 219.003 35.001,218.667 34.873,218.667 34.915 M200.500 35.910 C 200.500 35.956,200.800 36.146,201.167 36.333 C 201.533 36.520,201.833 36.636,201.833 36.590 C 201.833 36.544,201.533 36.354,201.167 36.167 C 200.800 35.980,200.500 35.864,200.500 35.910 M220.667 35.915 C 220.667 36.028,222.020 36.702,222.096 36.626 C 222.131 36.591,221.823 36.400,221.413 36.200 C 221.003 36.001,220.667 35.873,220.667 35.915 M182.058 37.269 C 182.502 37.500,182.899 37.657,182.939 37.616 C 183.018 37.537,181.588 36.828,181.377 36.841 C 181.307 36.845,181.614 37.038,182.058 37.269 M202.681 37.062 C 202.852 37.216,203.833 37.667,203.833 37.592 C 203.833 37.496,202.909 37.000,202.730 37.000 C 202.665 37.000,202.642 37.028,202.681 37.062 M183.833 38.084 C 183.833 38.176,184.770 38.667,184.945 38.667 C 185.116 38.667,184.496 38.251,184.125 38.116 C 183.965 38.058,183.833 38.044,183.833 38.084 M204.681 38.063 C 204.851 38.217,206.167 38.831,206.167 38.757 C 206.167 38.662,204.909 38.000,204.729 38.000 C 204.664 38.000,204.642 38.028,204.681 38.063 M185.833 39.069 C 185.833 39.215,186.856 39.699,186.955 39.600 C 187.005 39.550,186.838 39.430,186.582 39.333 C 186.327 39.236,186.054 39.117,185.976 39.068 C 185.898 39.020,185.833 39.020,185.833 39.069 M206.681 39.063 C 206.851 39.217,208.167 39.831,208.167 39.757 C 208.167 39.662,206.909 39.000,206.729 39.000 C 206.664 39.000,206.642 39.028,206.681 39.063 M187.833 40.088 C 187.833 40.169,188.766 40.667,188.918 40.667 C 188.974 40.667,188.978 40.599,188.927 40.516 C 188.829 40.358,187.833 39.967,187.833 40.088 M208.681 40.063 C 208.851 40.217,210.167 40.831,210.167 40.757 C 210.167 40.662,208.909 40.000,208.729 40.000 C 208.664 40.000,208.642 40.028,208.681 40.063 M189.833 41.084 C 189.833 41.176,190.770 41.667,190.945 41.667 C 191.116 41.667,190.496 41.251,190.125 41.116 C 189.965 41.058,189.833 41.044,189.833 41.084 M210.681 41.062 C 210.852 41.216,211.833 41.667,211.833 41.592 C 211.833 41.496,210.909 41.000,210.730 41.000 C 210.665 41.000,210.642 41.028,210.681 41.062 M191.833 42.069 C 191.833 42.215,192.856 42.699,192.955 42.600 C 193.005 42.550,192.838 42.430,192.582 42.333 C 192.327 42.236,192.054 42.117,191.976 42.068 C 191.898 42.020,191.833 42.020,191.833 42.069 M193.917 43.143 C 194.008 43.238,194.383 43.439,194.750 43.590 C 195.117 43.741,195.342 43.786,195.250 43.691 C 195.158 43.595,194.783 43.394,194.417 43.243 C 194.050 43.092,193.825 43.047,193.917 43.143 M195.917 44.149 C 196.008 44.241,196.383 44.439,196.750 44.590 C 197.117 44.741,197.342 44.789,197.250 44.698 C 197.158 44.606,196.783 44.408,196.417 44.257 C 196.050 44.106,195.825 44.058,195.917 44.149 M198.167 45.248 C 198.167 45.293,198.842 45.669,199.667 46.083 C 201.577 47.043,201.622 46.936,199.731 45.930 C 198.262 45.149,198.167 45.107,198.167 45.248 M237.614 59.681 C 237.356 60.040,237.184 60.333,237.231 60.333 C 237.360 60.333,238.223 59.167,238.148 59.093 C 238.113 59.057,237.872 59.322,237.614 59.681 M248.948 59.681 C 248.689 60.040,248.517 60.333,248.564 60.333 C 248.694 60.333,249.556 59.167,249.482 59.093 C 249.446 59.057,249.206 59.322,248.948 59.681 M260.833 59.833 C 260.543 60.200,260.337 60.500,260.375 60.500 C 260.414 60.500,260.715 60.200,261.044 59.833 C 261.373 59.467,261.579 59.167,261.502 59.167 C 261.425 59.167,261.124 59.467,260.833 59.833 M201.143 60.872 C 199.651 62.744,199.460 63.000,199.556 63.000 C 199.597 63.000,200.213 62.269,200.925 61.375 C 202.601 59.272,202.555 59.333,202.455 59.333 C 202.408 59.333,201.818 60.026,201.143 60.872 M224.737 60.875 C 224.205 61.540,223.512 62.402,223.198 62.792 C 222.884 63.181,222.670 63.500,222.723 63.500 C 222.775 63.500,223.396 62.769,224.101 61.875 C 224.806 60.981,225.496 60.119,225.634 59.958 C 225.772 59.798,225.844 59.667,225.795 59.667 C 225.745 59.667,225.269 60.210,224.737 60.875 M212.399 61.792 C 211.694 62.685,211.004 63.548,210.866 63.708 C 210.728 63.869,210.656 64.000,210.705 64.000 C 210.755 64.000,211.231 63.456,211.763 62.792 C 212.295 62.127,212.988 61.265,213.302 60.875 C 213.616 60.485,213.830 60.167,213.777 60.167 C 213.725 60.167,213.104 60.898,212.399 61.792 M248.066 60.875 C 247.356 61.694,247.093 62.052,247.279 61.943 C 247.387 61.880,247.712 61.530,248.002 61.164 C 248.563 60.456,248.609 60.249,248.066 60.875 M236.638 60.958 C 236.503 61.119,236.108 61.625,235.760 62.083 L 235.129 62.917 235.738 62.250 C 236.411 61.513,237.061 60.667,236.954 60.667 C 236.916 60.667,236.774 60.798,236.638 60.958 M258.570 62.708 C 258.038 63.373,257.346 64.235,257.031 64.625 C 256.717 65.015,256.498 65.333,256.544 65.333 C 256.591 65.333,257.064 64.790,257.597 64.125 C 258.129 63.460,258.821 62.598,259.135 62.208 C 259.450 61.819,259.669 61.500,259.622 61.500 C 259.576 61.500,259.102 62.044,258.570 62.708 M246.805 62.458 C 246.048 63.354,245.274 64.384,245.426 64.293 C 245.626 64.173,247.225 62.167,247.120 62.167 C 247.083 62.167,246.941 62.298,246.805 62.458 M234.729 63.375 C 234.031 64.171,233.105 65.407,233.355 65.208 C 233.643 64.980,235.229 63.000,235.123 63.000 C 235.088 63.000,234.910 63.169,234.729 63.375 M197.064 66.042 C 195.811 67.623,194.741 68.995,194.685 69.091 C 194.462 69.474,195.306 68.466,197.131 66.167 C 198.186 64.837,199.163 63.619,199.301 63.458 C 199.439 63.298,199.504 63.167,199.447 63.167 C 199.389 63.167,198.317 64.460,197.064 66.042 M209.817 65.042 C 208.576 66.562,208.542 66.609,208.850 66.372 C 209.158 66.136,210.729 64.167,210.610 64.167 C 210.567 64.167,210.210 64.560,209.817 65.042 M221.236 65.292 C 219.819 67.051,219.429 67.574,219.677 67.381 C 219.965 67.156,222.055 64.500,221.943 64.500 C 221.905 64.500,221.587 64.856,221.236 65.292 M244.549 65.292 C 243.318 66.795,242.138 68.333,242.217 68.333 C 242.260 68.333,242.731 67.790,243.263 67.125 C 243.795 66.460,244.488 65.598,244.802 65.208 C 245.116 64.819,245.334 64.500,245.286 64.500 C 245.237 64.500,244.906 64.856,244.549 65.292 M232.500 66.167 C 232.210 66.533,232.009 66.833,232.055 66.833 C 232.101 66.833,232.376 66.533,232.667 66.167 C 232.957 65.800,233.157 65.500,233.111 65.500 C 233.066 65.500,232.790 65.800,232.500 66.167 M254.984 67.208 C 254.234 68.148,253.546 69.010,253.456 69.125 C 253.366 69.240,253.331 69.333,253.377 69.333 C 253.424 69.333,253.898 68.790,254.430 68.125 C 254.962 67.460,255.654 66.598,255.969 66.208 C 256.283 65.819,256.497 65.500,256.444 65.500 C 256.391 65.500,255.734 66.269,254.984 67.208 M207.570 67.875 C 207.038 68.540,206.346 69.402,206.031 69.792 C 205.717 70.181,205.503 70.500,205.556 70.500 C 205.609 70.500,206.236 69.771,206.951 68.880 C 208.482 66.971,208.710 66.667,208.612 66.667 C 208.571 66.667,208.102 67.210,207.570 67.875 M231.150 67.875 C 230.758 68.356,230.319 68.894,230.177 69.070 C 230.034 69.246,230.004 69.340,230.110 69.278 C 230.323 69.154,232.049 67.000,231.935 67.000 C 231.896 67.000,231.543 67.394,231.150 67.875 M217.737 69.708 C 217.205 70.373,216.512 71.235,216.198 71.625 C 215.884 72.015,215.670 72.333,215.723 72.333 C 215.775 72.333,216.396 71.602,217.101 70.708 C 217.806 69.815,218.496 68.952,218.634 68.792 C 218.772 68.631,218.844 68.500,218.795 68.500 C 218.745 68.500,218.269 69.044,217.737 69.708 M241.383 69.292 C 240.151 70.795,238.972 72.333,239.050 72.333 C 239.094 72.333,239.564 71.790,240.097 71.125 C 240.629 70.460,241.321 69.598,241.635 69.208 C 241.950 68.819,242.167 68.500,242.119 68.500 C 242.071 68.500,241.739 68.856,241.383 69.292 M228.903 70.708 C 228.371 71.373,227.679 72.235,227.365 72.625 C 227.050 73.015,226.832 73.333,226.878 73.333 C 226.954 73.333,229.236 70.574,229.801 69.799 C 230.369 69.020,229.765 69.632,228.903 70.708 M252.484 70.375 C 251.243 71.896,251.209 71.943,251.517 71.705 C 251.824 71.469,253.395 69.500,253.277 69.500 C 253.233 69.500,252.876 69.894,252.484 70.375 M192.902 71.292 C 191.252 73.365,191.276 73.333,191.383 73.333 C 191.433 73.333,192.024 72.642,192.696 71.797 C 194.179 69.931,194.375 69.667,194.273 69.667 C 194.230 69.667,193.613 70.398,192.902 71.292 M204.071 72.292 C 203.356 73.185,202.514 74.235,202.199 74.625 C 201.884 75.015,201.667 75.333,201.718 75.333 C 201.768 75.333,202.538 74.415,203.430 73.292 C 204.322 72.169,205.165 71.119,205.302 70.958 C 205.439 70.798,205.511 70.667,205.461 70.667 C 205.411 70.667,204.785 71.398,204.071 72.292 M250.234 73.208 C 249.700 73.873,249.381 74.323,249.524 74.208 C 249.829 73.964,251.391 72.000,251.280 72.000 C 251.238 72.000,250.768 72.544,250.234 73.208 M215.305 72.792 C 214.548 73.687,213.774 74.717,213.926 74.626 C 214.126 74.506,215.725 72.500,215.620 72.500 C 215.583 72.500,215.441 72.631,215.305 72.792 M238.164 73.375 C 236.913 74.892,236.875 74.943,237.184 74.705 C 237.475 74.482,239.065 72.500,238.954 72.500 C 238.916 72.500,238.561 72.894,238.164 73.375 M225.997 74.375 C 224.746 75.892,224.708 75.943,225.017 75.705 C 225.308 75.482,226.898 73.500,226.787 73.500 C 226.750 73.500,226.394 73.894,225.997 74.375 M190.400 74.458 C 189.436 75.627,189.230 75.909,189.426 75.792 C 189.625 75.673,191.225 73.667,191.120 73.667 C 191.083 73.667,190.759 74.023,190.400 74.458 M248.642 75.208 C 248.338 75.598,248.223 75.811,248.386 75.681 C 248.709 75.425,249.405 74.500,249.275 74.500 C 249.231 74.500,248.946 74.819,248.642 75.208 M212.382 76.453 C 210.851 78.363,210.623 78.667,210.722 78.667 C 210.762 78.667,211.231 78.123,211.763 77.458 C 212.295 76.794,212.988 75.931,213.302 75.542 C 213.616 75.152,213.830 74.833,213.777 74.833 C 213.725 74.833,213.097 75.562,212.382 76.453 M236.638 75.292 C 236.503 75.452,236.108 75.958,235.760 76.417 L 235.129 77.250 235.738 76.583 C 236.411 75.846,237.061 75.000,236.954 75.000 C 236.916 75.000,236.774 75.131,236.638 75.292 M200.486 76.792 C 200.003 77.410,199.350 78.235,199.034 78.625 C 198.718 79.015,198.498 79.333,198.545 79.333 C 198.592 79.333,199.213 78.602,199.925 77.708 C 201.604 75.601,201.555 75.667,201.452 75.667 C 201.404 75.667,200.969 76.173,200.486 76.792 M224.472 76.292 C 224.336 76.452,223.941 76.958,223.594 77.417 L 222.962 78.250 223.571 77.583 C 224.244 76.846,224.894 76.000,224.787 76.000 C 224.749 76.000,224.607 76.131,224.472 76.292 M247.805 76.292 C 247.048 77.187,246.274 78.217,246.426 78.126 C 246.626 78.006,248.225 76.000,248.120 76.000 C 248.083 76.000,247.941 76.131,247.805 76.292 M234.729 77.708 C 234.214 78.297,233.951 78.667,234.049 78.667 C 234.098 78.667,234.376 78.367,234.667 78.000 C 235.231 77.287,235.275 77.086,234.729 77.708 M222.566 78.708 C 221.856 79.528,221.593 79.885,221.779 79.776 C 221.887 79.713,222.212 79.363,222.502 78.998 C 223.063 78.289,223.109 78.082,222.566 78.708 M245.900 78.708 C 245.189 79.528,244.926 79.885,245.113 79.776 C 245.221 79.713,245.546 79.363,245.835 78.998 C 246.396 78.289,246.442 78.082,245.900 78.708 M209.257 80.413 C 208.566 81.281,208.000 82.069,208.000 82.163 C 208.000 82.276,210.002 82.331,213.958 82.327 L 219.917 82.320 220.471 81.535 L 221.026 80.750 220.388 81.461 L 219.750 82.172 213.958 82.169 C 210.773 82.168,208.167 82.123,208.167 82.070 C 208.167 81.989,209.627 80.123,210.472 79.125 C 210.607 78.965,210.673 78.833,210.617 78.833 C 210.561 78.833,209.949 79.544,209.257 80.413 M198.066 79.875 C 197.356 80.694,197.093 81.052,197.279 80.943 C 197.387 80.880,197.712 80.530,198.002 80.164 C 198.563 79.456,198.609 79.249,198.066 79.875 M232.181 80.899 C 231.715 81.485,231.333 82.047,231.333 82.149 C 231.333 82.280,233.039 82.331,237.292 82.327 L 243.250 82.320 243.804 81.535 L 244.359 80.750 243.721 81.461 L 243.083 82.172 237.385 82.169 C 231.208 82.166,231.301 82.181,232.018 81.331 C 232.710 80.510,233.203 79.833,233.109 79.833 C 233.065 79.833,232.647 80.313,232.181 80.899 " stroke="none" fill="#7c7c7c" fill-rule="evenodd"></path><path id="path4" d="" stroke="none" fill="#100c040" fill-rule="evenodd"></path><path id="path5" d="" stroke="none" fill="#100c040" fill-rule="evenodd"></path><path id="path6" d="" stroke="none" fill="#100c040" fill-rule="evenodd"></path><path id="path7" d="" stroke="none" fill="#100c040" fill-rule="evenodd"></path><path id="path8" d="" stroke="none" fill="#100c040" fill-rule="evenodd"></path></g></svg>