<svg id="svg" version="1.1" xmlns="http://www.w3.org/2000/svg" xmlns:xlink="http://www.w3.org/1999/xlink" width="400" height="400" viewBox="0, 0, 400,400"><g id="svgg"><path id="path0" d="M241.530 116.179 C 239.708 117.335,236.160 119.547,233.647 121.094 C 231.133 122.641,229.079 123.977,229.081 124.063 C 229.086 124.240,254.471 141.258,254.575 141.154 C 254.613 141.117,253.586 138.064,252.294 134.371 C 251.003 130.678,249.383 126.039,248.695 124.063 C 245.810 115.772,245.181 114.063,245.017 114.069 C 244.922 114.073,243.353 115.022,241.530 116.179 M215.625 132.280 C 214.508 132.990,212.360 134.357,210.852 135.318 L 208.109 137.066 221.053 145.759 C 228.172 150.541,234.117 154.385,234.264 154.302 C 237.595 152.430,244.023 148.282,243.840 148.123 C 243.074 147.459,218.108 130.942,217.903 130.964 C 217.767 130.978,216.742 131.570,215.625 132.280 M49.712 141.265 C 29.266 143.835,11.775 163.102,6.890 188.438 C -1.465 231.762,21.527 271.250,55.107 271.250 C 72.926 271.250,86.922 261.730,96.683 242.969 L 98.146 240.156 95.245 237.369 C 93.649 235.836,90.021 232.320,87.182 229.556 C 84.344 226.792,81.086 223.633,79.943 222.535 L 77.865 220.539 76.863 222.535 C 64.872 246.430,37.655 241.270,33.280 214.272 C 27.524 178.751,59.760 159.467,75.542 188.991 L 77.091 191.889 87.374 182.151 C 93.029 176.796,97.702 172.220,97.758 171.983 C 97.867 171.525,95.434 166.831,93.330 163.438 C 83.176 147.058,67.404 139.041,49.712 141.265 M104.688 206.237 L 104.688 268.750 118.125 268.750 L 131.563 268.750 131.563 249.625 C 131.563 238.805,131.680 230.629,131.834 230.797 C 131.983 230.960,134.674 235.805,137.815 241.563 C 140.955 247.320,145.102 254.914,147.030 258.438 C 148.958 261.961,151.004 265.723,151.578 266.797 L 152.620 268.750 169.591 268.750 C 178.925 268.750,186.563 268.688,186.563 268.613 C 186.563 268.479,185.322 266.442,173.129 246.563 C 159.433 224.233,160.176 225.522,160.786 225.167 C 174.375 217.258,181.267 201.816,180.014 182.091 C 178.888 164.389,172.526 152.599,161.094 147.032 C 154.450 143.797,155.895 143.939,128.516 143.824 L 104.688 143.724 104.688 206.237 M266.088 144.453 C 266.177 144.840,266.454 146.422,266.704 147.969 C 267.149 150.723,268.001 155.739,270.153 168.281 C 270.742 171.719,271.870 178.328,272.657 182.969 C 273.445 187.609,274.359 192.953,274.688 194.844 C 275.018 196.734,276.073 202.922,277.033 208.594 C 277.994 214.266,279.130 220.945,279.558 223.438 C 279.985 225.930,280.957 231.625,281.717 236.094 C 282.477 240.563,283.804 248.367,284.666 253.438 C 285.528 258.508,286.445 263.852,286.705 265.313 C 286.964 266.773,287.179 268.146,287.182 268.362 C 287.186 268.674,290.400 268.739,302.715 268.675 L 318.243 268.594 319.138 264.375 C 320.143 259.640,321.084 255.169,325.946 232.031 C 329.475 215.239,330.013 212.669,330.822 208.750 C 331.266 206.602,331.681 204.788,331.745 204.721 C 331.944 204.509,332.060 205.017,336.564 225.938 C 338.988 237.195,341.373 248.234,341.865 250.469 C 342.357 252.703,343.211 256.641,343.763 259.219 C 344.315 261.797,345.010 264.961,345.306 266.250 L 345.844 268.594 361.353 268.675 L 376.862 268.756 377.024 268.050 C 377.114 267.661,378.798 257.711,380.767 245.938 C 384.267 225.014,386.377 212.466,391.722 180.781 C 396.176 154.377,397.809 144.548,397.811 144.141 C 397.812 143.834,394.917 143.750,384.375 143.750 C 376.984 143.750,370.937 143.855,370.936 143.984 C 370.935 144.113,370.451 147.523,369.859 151.563 C 369.268 155.602,368.288 162.352,367.682 166.563 C 367.075 170.773,366.001 178.156,365.294 182.969 C 364.588 187.781,363.886 192.633,363.734 193.750 C 363.583 194.867,362.889 199.648,362.194 204.375 C 361.498 209.102,360.700 214.621,360.421 216.641 C 359.784 221.243,359.707 221.223,358.648 216.172 C 358.170 213.895,357.077 208.727,356.218 204.688 C 355.359 200.648,354.314 195.727,353.896 193.750 C 353.478 191.773,352.985 189.453,352.801 188.594 C 352.022 184.956,349.266 171.983,346.378 158.360 L 343.281 143.751 332.500 143.752 L 321.719 143.752 318.491 158.985 C 316.716 167.364,314.421 178.156,313.392 182.969 C 310.701 195.544,308.713 204.904,305.872 218.359 C 305.335 220.902,305.170 220.442,304.247 213.828 C 303.773 210.434,302.912 204.281,302.334 200.156 C 301.755 196.031,300.358 186.047,299.229 177.969 C 298.100 169.891,296.837 160.891,296.422 157.969 C 296.007 155.047,295.442 150.969,295.167 148.906 C 294.892 146.844,294.599 144.840,294.515 144.453 L 294.363 143.750 280.144 143.750 L 265.926 143.750 266.088 144.453 M192.188 146.915 C 189.695 148.471,187.542 149.852,187.403 149.984 C 187.264 150.116,192.978 154.127,200.101 158.897 L 213.052 167.571 216.604 165.393 C 218.558 164.196,220.830 162.787,221.654 162.264 L 223.151 161.311 222.279 160.701 C 216.601 156.734,197.439 144.065,197.128 144.074 C 196.903 144.080,194.680 145.359,192.188 146.915 M183.125 161.730 C 183.125 161.804,183.603 163.238,184.188 164.917 C 184.772 166.595,186.318 171.050,187.623 174.815 C 188.928 178.581,190.042 181.708,190.098 181.765 C 190.155 181.822,191.386 181.125,192.835 180.216 C 194.284 179.307,196.914 177.668,198.680 176.572 C 200.446 175.477,201.853 174.468,201.805 174.330 C 201.709 174.052,183.125 161.517,183.125 161.730 M145.877 176.169 C 155.495 179.995,155.204 197.595,145.472 200.601 C 143.660 201.161,142.560 201.250,137.467 201.250 L 131.563 201.250 131.563 188.249 L 131.563 175.248 137.891 175.379 C 143.404 175.492,144.432 175.594,145.877 176.169 M190.000 202.250 C 190.000 208.697,190.117 213.435,190.272 213.266 C 190.422 213.102,193.186 208.469,196.414 202.969 C 199.641 197.469,202.542 192.595,202.860 192.139 C 203.178 191.683,203.438 191.226,203.438 191.124 C 203.438 191.021,200.414 190.938,196.719 190.938 L 190.000 190.938 190.000 202.250 M214.999 191.953 C 214.666 192.512,210.677 199.227,206.134 206.875 L 197.875 220.781 203.368 220.867 C 206.389 220.914,208.964 220.844,209.091 220.711 C 209.377 220.412,226.265 191.869,226.477 191.328 C 226.595 191.025,225.400 190.938,221.117 190.938 L 215.604 190.938 214.999 191.953 M234.052 198.984 C 231.430 203.410,227.477 210.075,225.267 213.795 C 223.058 217.515,221.250 220.644,221.250 220.748 C 221.250 220.852,223.676 220.937,226.641 220.936 L 232.031 220.934 235.774 214.608 C 237.832 211.128,241.655 204.667,244.270 200.250 C 246.884 195.833,249.178 191.931,249.367 191.578 C 249.706 190.944,249.657 190.938,244.264 190.938 L 238.819 190.938 234.052 198.984 M256.017 200.713 C 253.053 205.735,249.163 212.305,247.374 215.313 L 244.119 220.781 252.732 220.864 C 257.469 220.910,261.395 220.897,261.456 220.835 C 261.518 220.773,261.532 214.166,261.487 206.152 L 261.406 191.581 256.017 200.713 M190.000 253.438 L 190.000 268.753 225.787 268.673 L 261.575 268.594 261.575 253.438 L 261.575 238.281 225.787 238.202 L 190.000 238.122 190.000 253.438 M382.364 254.922 C 382.242 255.738,382.024 257.250,381.879 258.281 C 381.400 261.681,380.624 266.704,380.442 267.578 C 380.264 268.434,380.270 268.438,382.001 268.438 L 383.739 268.438 384.564 266.797 C 386.408 263.128,388.517 259.351,388.649 259.482 C 388.726 259.559,388.650 260.727,388.479 262.077 C 388.309 263.427,388.083 265.410,387.976 266.484 L 387.781 268.438 389.466 268.438 L 391.150 268.438 392.966 264.609 C 393.965 262.504,395.535 259.222,396.454 257.316 C 398.470 253.135,398.458 253.438,396.609 253.438 L 395.092 253.438 393.444 257.109 C 391.509 261.419,391.121 261.965,391.393 260.000 C 391.500 259.227,391.694 257.434,391.825 256.016 L 392.063 253.438 390.425 253.438 L 388.788 253.438 386.817 257.250 C 384.679 261.387,384.385 261.415,385.135 257.408 C 385.887 253.399,385.896 253.438,384.105 253.438 L 382.585 253.438 382.364 254.922 M399.156 256.649 C 396.003 261.268,395.704 266.851,398.536 268.237 C 400.111 269.008,400.024 269.393,399.928 262.085 L 399.844 255.641 399.156 256.649 " stroke="none" fill="#fafa17" fill-rule="evenodd"></path><path id="path1" d="M0.000 200.000 L 0.000 400.000 200.000 400.000 L 400.000 400.000 400.000 334.375 L 400.000 268.750 399.288 268.750 C 396.666 268.750,395.542 265.111,396.875 260.939 C 397.495 258.998,399.144 255.804,399.707 255.457 C 399.889 255.344,400.000 206.836,400.000 127.638 L 400.000 0.000 200.000 0.000 L 0.000 0.000 0.000 200.000 M245.625 114.154 C 245.625 114.376,246.175 116.098,246.848 117.982 C 248.146 121.616,248.931 123.845,252.507 134.063 C 255.241 141.873,255.149 141.563,254.730 141.563 C 254.541 141.563,250.904 139.216,246.647 136.348 C 242.389 133.481,236.613 129.601,233.811 127.727 C 231.009 125.853,228.767 124.168,228.829 123.983 C 228.997 123.477,244.557 113.783,245.234 113.762 C 245.449 113.755,245.625 113.932,245.625 114.154 M231.143 139.231 C 238.236 143.964,244.117 147.960,244.210 148.111 C 244.346 148.331,236.922 153.326,234.569 154.597 C 234.083 154.859,233.221 154.394,229.569 151.897 C 227.142 150.237,221.259 146.284,216.497 143.112 C 211.734 139.939,207.839 137.203,207.842 137.031 C 207.847 136.709,217.425 130.646,217.951 130.633 C 218.112 130.628,224.049 134.498,231.143 139.231 M64.375 141.555 C 74.204 143.676,81.306 147.937,88.002 155.728 C 91.757 160.097,98.121 170.363,98.124 172.055 C 98.125 172.317,80.592 189.148,77.722 191.641 C 76.865 192.384,76.744 192.343,76.318 191.164 C 72.358 180.212,61.348 173.247,51.471 175.444 C 29.247 180.389,26.002 224.288,47.051 235.220 C 57.902 240.856,69.741 235.925,76.270 223.048 C 77.033 221.545,77.770 220.315,77.910 220.314 C 78.049 220.313,80.932 223.024,84.316 226.338 C 87.700 229.652,92.268 234.117,94.466 236.260 L 98.464 240.156 96.999 242.969 C 96.193 244.516,95.273 246.155,94.955 246.611 C 94.636 247.067,94.375 247.530,94.375 247.640 C 94.375 248.646,88.231 256.468,84.954 259.634 C 69.947 274.130,46.420 275.709,30.000 263.321 C 11.873 249.646,2.690 224.665,5.459 196.563 C 9.083 159.785,35.324 135.285,64.375 141.555 M153.980 144.057 C 170.661 147.578,180.313 163.096,180.312 186.394 C 180.312 204.417,173.909 217.594,161.499 225.108 L 160.655 225.620 162.875 229.294 C 165.332 233.361,173.384 246.495,180.935 258.750 C 185.593 266.311,186.875 268.499,186.875 268.891 C 186.875 268.985,179.151 269.063,169.709 269.063 L 152.544 269.062 150.448 265.234 C 149.295 263.129,148.003 260.773,147.576 260.000 C 147.149 259.227,146.340 257.750,145.778 256.719 C 145.217 255.688,142.300 250.344,139.296 244.844 C 136.293 239.344,133.430 234.070,132.934 233.125 L 132.031 231.406 131.875 250.156 L 131.719 268.906 118.047 268.988 L 104.375 269.069 104.375 206.253 L 104.375 143.438 127.734 143.442 C 149.687 143.447,151.268 143.484,153.980 144.057 M210.435 152.326 C 219.470 158.381,223.583 161.307,223.334 161.502 C 221.793 162.711,213.313 167.831,212.980 167.754 C 212.239 167.582,186.880 150.481,186.884 150.156 C 186.887 149.923,196.721 143.458,197.100 143.441 C 197.138 143.439,203.139 147.437,210.435 152.326 M294.937 145.547 C 295.129 146.707,295.506 149.344,295.775 151.406 C 296.044 153.469,296.393 156.000,296.551 157.031 C 296.894 159.272,297.324 162.323,297.981 167.188 C 298.248 169.164,298.598 171.625,298.758 172.656 C 298.918 173.688,299.268 176.219,299.535 178.281 C 299.802 180.344,300.153 182.875,300.315 183.906 C 300.477 184.938,301.044 188.945,301.575 192.813 C 303.104 203.953,304.032 210.619,304.359 212.813 C 304.525 213.930,304.753 215.617,304.866 216.563 C 305.203 219.402,305.462 219.232,306.175 215.705 C 306.548 213.856,307.293 210.305,307.830 207.813 C 308.367 205.320,309.132 201.734,309.530 199.844 C 309.928 197.953,310.630 194.648,311.091 192.500 C 311.551 190.352,312.254 187.047,312.653 185.156 C 313.052 183.266,313.758 179.961,314.221 177.813 C 314.684 175.664,315.182 173.344,315.327 172.656 C 316.230 168.386,318.205 159.098,318.716 156.719 C 319.991 150.780,320.395 148.859,320.655 147.500 C 320.803 146.727,321.086 145.496,321.284 144.766 L 321.644 143.438 332.520 143.438 C 342.604 143.438,343.408 143.477,343.566 143.984 C 343.706 144.432,345.084 150.914,346.573 158.125 C 346.732 158.898,347.082 160.516,347.349 161.719 C 347.617 162.922,347.965 164.539,348.124 165.313 C 348.283 166.086,348.772 168.406,349.210 170.469 C 349.648 172.531,350.350 175.836,350.768 177.813 C 351.187 179.789,351.875 183.023,352.296 185.000 C 353.794 192.020,354.325 194.541,354.471 195.313 C 354.552 195.742,355.061 198.133,355.603 200.625 C 356.527 204.871,357.069 207.436,358.783 215.690 C 359.407 218.691,360.000 219.838,360.000 218.042 C 360.000 217.673,360.211 216.029,360.469 214.389 C 360.727 212.748,361.229 209.367,361.586 206.875 C 361.943 204.383,362.577 200.023,362.996 197.188 C 363.414 194.352,363.904 190.906,364.085 189.531 C 364.266 188.156,364.617 185.695,364.866 184.063 C 365.298 181.222,367.180 168.246,369.533 151.875 C 370.138 147.664,370.698 144.043,370.776 143.828 C 370.991 143.236,398.125 143.260,398.125 143.852 C 398.125 144.080,397.554 147.631,396.856 151.743 C 396.157 155.854,395.460 159.992,395.305 160.938 C 395.150 161.883,394.816 163.922,394.562 165.469 C 394.308 167.016,393.029 174.609,391.720 182.344 C 390.410 190.078,389.219 197.180,389.073 198.125 C 388.927 199.070,388.571 201.180,388.281 202.813 C 387.992 204.445,387.636 206.555,387.491 207.500 C 387.345 208.445,386.436 213.859,385.469 219.531 C 384.502 225.203,383.435 231.602,383.099 233.750 C 382.762 235.898,382.422 237.838,382.342 238.060 C 382.262 238.282,381.985 239.899,381.726 241.654 C 381.467 243.408,381.049 245.969,380.796 247.344 C 380.217 250.487,379.187 256.573,378.441 261.250 C 378.125 263.227,377.690 265.793,377.473 266.953 L 377.079 269.063 361.358 269.063 L 345.637 269.063 345.474 268.359 C 345.250 267.394,343.139 257.636,342.821 256.094 C 342.679 255.406,342.210 253.227,341.778 251.250 C 341.346 249.273,340.568 245.688,340.049 243.281 C 339.035 238.584,337.986 233.755,336.704 227.890 C 336.263 225.871,335.642 222.953,335.325 221.406 C 335.008 219.859,334.450 217.258,334.086 215.625 C 333.722 213.992,333.197 211.602,332.919 210.313 C 332.127 206.642,331.633 205.015,331.595 205.953 C 331.577 206.392,331.281 208.009,330.937 209.547 C 330.593 211.085,329.964 214.031,329.539 216.094 C 329.113 218.156,328.406 221.531,327.966 223.594 C 327.063 227.824,326.594 230.078,325.491 235.469 C 325.070 237.531,324.359 240.906,323.912 242.969 C 323.465 245.031,322.971 247.352,322.816 248.125 C 322.660 248.898,321.958 252.273,321.255 255.625 C 320.553 258.977,319.693 263.125,319.344 264.844 C 318.996 266.563,318.639 268.216,318.552 268.519 C 318.403 269.035,317.450 269.063,302.718 268.987 L 287.042 268.906 286.506 265.781 C 286.211 264.063,285.524 260.055,284.977 256.875 C 284.431 253.695,283.873 250.391,283.738 249.531 C 283.602 248.672,282.911 244.594,282.204 240.469 C 281.496 236.344,280.294 229.313,279.532 224.844 C 278.771 220.375,277.713 214.188,277.181 211.094 C 276.649 208.000,275.524 201.391,274.680 196.406 C 272.806 185.338,271.746 179.148,271.109 175.557 C 270.843 174.059,270.489 171.949,270.323 170.869 C 270.157 169.790,269.671 166.867,269.242 164.375 C 268.814 161.883,267.889 156.469,267.186 152.344 C 266.483 148.219,265.829 144.527,265.733 144.141 L 265.557 143.438 280.072 143.438 L 294.587 143.438 294.937 145.547 M192.916 167.786 C 202.949 174.465,202.921 174.443,201.797 175.037 C 201.410 175.242,198.660 176.954,195.685 178.843 C 192.298 180.992,190.166 182.166,189.981 181.981 C 189.819 181.819,189.137 180.077,188.466 178.109 C 187.794 176.141,186.248 171.671,185.029 168.175 C 182.784 161.736,182.607 161.115,183.072 161.302 C 183.215 161.359,187.645 164.277,192.916 167.786 M131.875 188.318 L 131.875 201.010 138.047 200.867 C 149.389 200.604,152.345 198.031,152.326 188.438 C 152.307 178.489,148.891 175.643,136.953 175.630 L 131.875 175.625 131.875 188.318 M203.750 190.900 C 203.750 191.051,201.672 194.672,199.132 198.947 C 196.593 203.221,193.538 208.371,192.343 210.391 C 191.149 212.410,190.063 214.063,189.930 214.063 C 189.796 214.063,189.688 208.789,189.688 202.344 L 189.688 190.625 196.719 190.625 C 200.586 190.625,203.750 190.749,203.750 190.900 M226.388 192.109 C 225.915 192.926,223.900 196.336,221.910 199.688 C 219.920 203.039,218.130 206.083,217.931 206.452 C 217.733 206.821,216.656 208.649,215.538 210.515 C 214.421 212.380,212.583 215.453,211.453 217.344 L 209.400 220.781 214.916 220.867 C 219.068 220.931,220.526 220.854,220.813 220.554 C 221.134 220.219,230.764 204.105,235.617 195.781 C 236.419 194.406,237.453 192.684,237.916 191.953 L 238.758 190.625 244.379 190.625 C 247.471 190.625,250.000 190.718,250.000 190.832 C 250.000 190.946,249.628 191.684,249.173 192.473 C 247.241 195.821,238.774 210.129,234.879 216.626 C 233.571 218.809,232.500 220.675,232.500 220.773 C 232.500 220.871,235.054 220.913,238.177 220.866 L 243.853 220.781 244.406 219.791 C 244.710 219.247,247.664 214.255,250.970 208.698 C 254.276 203.140,257.635 197.469,258.434 196.094 C 260.356 192.788,261.536 190.938,261.723 190.938 C 261.806 190.938,261.875 197.758,261.875 206.094 L 261.875 221.250 229.688 221.250 C 211.984 221.250,197.500 221.174,197.500 221.082 C 197.500 220.989,199.559 217.438,202.075 213.191 C 204.591 208.944,207.228 204.481,207.934 203.274 C 208.641 202.067,210.621 198.728,212.335 195.852 L 215.451 190.625 221.349 190.625 L 227.247 190.625 226.388 192.109 M261.875 253.439 L 261.875 269.065 225.859 268.986 L 189.844 268.906 189.762 253.750 C 189.718 245.414,189.748 238.418,189.831 238.203 C 189.949 237.894,197.458 237.813,225.928 237.813 L 261.875 237.813 261.875 253.439 M385.938 253.873 C 385.938 254.284,385.716 255.693,385.445 257.004 C 384.737 260.427,384.945 260.372,386.890 256.623 L 388.623 253.281 390.453 253.186 L 392.282 253.091 392.081 255.716 C 391.970 257.159,391.804 258.819,391.712 259.404 L 391.544 260.469 392.018 259.531 C 392.279 259.016,393.052 257.363,393.737 255.859 L 394.983 253.125 396.710 253.125 C 398.824 253.125,398.830 252.889,396.599 257.558 C 395.588 259.675,393.970 263.066,393.003 265.094 L 391.246 268.781 389.464 268.687 L 387.682 268.594 387.756 266.875 C 387.797 265.930,387.979 264.125,388.159 262.864 C 388.605 259.760,388.479 259.811,386.558 263.512 C 383.654 269.105,384.113 268.594,382.004 268.594 C 380.831 268.594,380.179 268.468,380.219 268.250 C 380.253 268.061,380.424 266.795,380.598 265.437 C 380.772 264.080,381.138 261.563,381.412 259.844 C 381.685 258.125,381.991 255.910,382.091 254.922 L 382.274 253.125 384.106 253.125 C 385.829 253.125,385.938 253.169,385.938 253.873 " stroke="none" fill="#040404" fill-rule="evenodd"></path><path id="path2" d="M54.766 140.840 C 55.066 140.919,55.559 140.919,55.859 140.840 C 56.160 140.762,55.914 140.698,55.313 140.698 C 54.711 140.698,54.465 140.762,54.766 140.840 M115.882 143.672 C 121.953 143.719,131.797 143.719,137.757 143.672 C 143.717 143.624,138.750 143.585,126.719 143.585 C 114.688 143.585,109.811 143.624,115.882 143.672 M270.938 143.663 C 284.152 143.881,294.615 143.885,294.483 143.672 C 294.403 143.543,287.913 143.469,280.060 143.508 C 272.207 143.546,268.102 143.616,270.938 143.663 M327.109 143.671 C 330.074 143.723,334.926 143.723,337.891 143.671 C 340.855 143.620,338.430 143.578,332.500 143.578 C 326.570 143.578,324.145 143.620,327.109 143.671 M377.912 143.672 C 381.662 143.721,387.709 143.721,391.349 143.671 C 394.990 143.622,391.922 143.581,384.531 143.581 C 377.141 143.581,374.162 143.622,377.912 143.672 M55.395 237.724 C 55.870 237.796,56.573 237.794,56.957 237.720 C 57.342 237.646,56.953 237.587,56.094 237.589 C 55.234 237.592,54.920 237.652,55.395 237.724 M96.250 238.223 C 96.250 238.277,96.707 238.734,97.266 239.238 L 98.281 240.156 97.363 239.141 C 96.508 238.194,96.250 237.981,96.250 238.223 M53.984 271.476 C 54.543 271.545,55.457 271.545,56.016 271.476 C 56.574 271.407,56.117 271.350,55.000 271.350 C 53.883 271.350,53.426 271.407,53.984 271.476 " stroke="none" fill="#7c7c12" fill-rule="evenodd"></path><path id="path3" d="M56.641 140.840 C 56.941 140.919,57.434 140.919,57.734 140.840 C 58.035 140.762,57.789 140.698,57.188 140.698 C 56.586 140.698,56.340 140.762,56.641 140.840 M104.530 206.328 L 104.531 268.906 118.125 268.911 L 131.719 268.916 118.204 268.830 L 104.689 268.743 104.609 206.247 L 104.529 143.750 104.530 206.328 M24.375 153.906 C 23.616 154.680,23.065 155.313,23.151 155.313 C 23.237 155.313,23.928 154.680,24.688 153.906 C 25.447 153.133,25.997 152.500,25.911 152.500 C 25.825 152.500,25.134 153.133,24.375 153.906 M133.984 175.545 C 135.230 175.604,137.270 175.604,138.516 175.545 C 139.762 175.485,138.742 175.437,136.250 175.437 C 133.758 175.437,132.738 175.485,133.984 175.545 M68.750 180.098 C 68.750 180.152,69.207 180.609,69.766 181.113 L 70.781 182.031 69.863 181.016 C 69.008 180.069,68.750 179.856,68.750 180.098 M133.999 201.170 C 135.425 201.228,137.675 201.228,138.999 201.170 C 140.323 201.111,139.156 201.064,136.406 201.064 C 133.656 201.064,132.573 201.112,133.999 201.170 M5.079 202.344 C 5.082 203.031,5.146 203.276,5.221 202.887 C 5.296 202.498,5.293 201.936,5.215 201.637 C 5.136 201.338,5.075 201.656,5.079 202.344 M5.079 209.844 C 5.082 210.531,5.146 210.776,5.221 210.387 C 5.296 209.998,5.293 209.436,5.215 209.137 C 5.136 208.838,5.075 209.156,5.079 209.844 M85.000 227.285 C 85.000 227.339,85.457 227.796,86.016 228.301 L 87.031 229.219 86.113 228.203 C 85.258 227.256,85.000 227.044,85.000 227.285 M95.000 237.031 C 95.583 237.633,96.130 238.125,96.216 238.125 C 96.302 238.125,95.896 237.633,95.313 237.031 C 94.729 236.430,94.182 235.938,94.096 235.938 C 94.010 235.938,94.417 236.430,95.000 237.031 M208.047 238.047 C 217.887 238.093,233.988 238.093,243.828 238.047 C 253.668 238.001,245.617 237.964,225.938 237.964 C 206.258 237.964,198.207 238.001,208.047 238.047 M161.350 268.984 C 166.132 269.033,173.866 269.033,178.538 268.984 C 183.209 268.936,179.297 268.896,169.844 268.896 C 160.391 268.896,156.569 268.936,161.350 268.984 M207.710 268.984 C 217.537 269.030,233.709 269.030,243.648 268.984 C 253.587 268.939,245.547 268.901,225.781 268.901 C 206.016 268.901,197.884 268.939,207.710 268.984 M294.944 268.984 C 299.295 269.033,306.327 269.033,310.569 268.984 C 314.811 268.935,311.250 268.895,302.656 268.895 C 294.063 268.895,290.592 268.935,294.944 268.984 M353.694 268.984 C 358.045 269.033,365.077 269.033,369.319 268.984 C 373.561 268.935,370.000 268.895,361.406 268.895 C 352.813 268.895,349.342 268.935,353.694 268.984 " stroke="none" fill="#575713" fill-rule="evenodd"></path><path id="path4" d="M85.313 153.281 C 86.246 154.227,87.080 155.000,87.166 155.000 C 87.252 155.000,86.559 154.227,85.625 153.281 C 84.691 152.336,83.857 151.563,83.771 151.563 C 83.685 151.563,84.379 152.336,85.313 153.281 M95.142 174.766 L 93.906 176.094 95.234 174.858 C 96.470 173.710,96.706 173.438,96.470 173.438 C 96.419 173.438,95.821 174.035,95.142 174.766 M141.328 175.528 C 141.629 175.607,142.121 175.607,142.422 175.528 C 142.723 175.449,142.477 175.385,141.875 175.385 C 141.273 175.385,141.027 175.449,141.328 175.528 M89.204 180.391 L 87.969 181.719 89.297 180.483 C 90.532 179.335,90.769 179.063,90.532 179.063 C 90.481 179.063,89.883 179.660,89.204 180.391 M42.012 180.391 L 41.094 181.406 42.109 180.488 C 43.056 179.633,43.269 179.375,43.027 179.375 C 42.973 179.375,42.516 179.832,42.012 180.391 M180.085 183.438 C 180.085 184.211,180.146 184.527,180.221 184.141 C 180.295 183.754,180.295 183.121,180.221 182.734 C 180.146 182.348,180.085 182.664,180.085 183.438 M83.262 186.016 L 82.344 187.031 83.359 186.113 C 84.306 185.258,84.519 185.000,84.277 185.000 C 84.223 185.000,83.766 185.457,83.262 186.016 M180.079 189.844 C 180.082 190.531,180.146 190.776,180.221 190.387 C 180.296 189.998,180.293 189.436,180.215 189.137 C 180.136 188.838,180.075 189.156,180.079 189.844 M193.359 190.858 C 195.293 190.913,198.457 190.913,200.391 190.858 C 202.324 190.803,200.742 190.759,196.875 190.759 C 193.008 190.759,191.426 190.803,193.359 190.858 M215.517 190.859 C 215.437 190.988,217.960 191.094,221.124 191.094 C 224.287 191.094,226.875 190.988,226.875 190.859 C 226.875 190.730,224.352 190.625,221.268 190.625 C 218.185 190.625,215.597 190.730,215.517 190.859 M241.641 190.858 C 243.145 190.915,245.605 190.915,247.109 190.858 C 248.613 190.800,247.383 190.754,244.375 190.754 C 241.367 190.754,240.137 190.800,241.641 190.858 M261.637 206.011 L 261.563 220.928 252.734 221.016 L 243.906 221.104 252.744 221.177 C 259.581 221.233,261.616 221.162,261.732 220.859 C 261.814 220.645,261.844 213.859,261.797 205.781 L 261.712 191.094 261.637 206.011 M32.614 206.094 C 32.615 207.813,32.667 208.476,32.731 207.568 C 32.794 206.660,32.793 205.253,32.729 204.443 C 32.665 203.632,32.613 204.375,32.614 206.094 M5.107 206.094 C 5.108 207.469,5.163 207.992,5.229 207.257 C 5.295 206.522,5.294 205.397,5.227 204.757 C 5.160 204.117,5.106 204.719,5.107 206.094 M167.171 220.547 L 166.094 221.719 167.266 220.642 C 167.910 220.050,168.438 219.522,168.438 219.470 C 168.438 219.231,168.173 219.456,167.171 220.547 M220.937 221.016 C 220.937 221.145,223.434 221.223,226.484 221.190 C 232.066 221.129,231.407 221.014,224.609 220.863 C 222.589 220.818,220.937 220.887,220.937 221.016 M200.547 221.170 C 202.137 221.227,204.738 221.227,206.328 221.170 C 207.918 221.114,206.617 221.067,203.438 221.067 C 200.258 221.067,198.957 221.114,200.547 221.170 M80.156 222.813 C 81.003 223.672,81.766 224.375,81.852 224.375 C 81.937 224.375,81.315 223.672,80.469 222.813 C 79.622 221.953,78.859 221.250,78.773 221.250 C 78.688 221.250,79.310 221.953,80.156 222.813 M88.125 230.398 C 88.125 230.446,89.215 231.536,90.547 232.820 L 92.969 235.156 90.633 232.734 C 88.463 230.485,88.125 230.170,88.125 230.398 M70.449 231.641 L 69.531 232.656 70.547 231.738 C 71.494 230.883,71.706 230.625,71.465 230.625 C 71.411 230.625,70.954 231.082,70.449 231.641 M261.707 253.438 C 261.707 261.602,261.747 264.941,261.797 260.859 C 261.846 256.777,261.846 250.098,261.797 246.016 C 261.747 241.934,261.707 245.273,261.707 253.438 M382.813 253.301 C 383.927 253.547,385.938 253.590,385.938 253.368 C 385.938 253.234,385.129 253.141,384.141 253.161 C 383.152 253.181,382.555 253.244,382.813 253.301 M389.615 253.351 C 390.177 253.421,391.020 253.420,391.490 253.348 C 391.960 253.277,391.500 253.220,390.469 253.222 C 389.438 253.224,389.053 253.282,389.615 253.351 M395.313 253.301 C 396.427 253.547,398.438 253.590,398.438 253.368 C 398.438 253.234,397.629 253.141,396.641 253.161 C 395.652 253.181,395.055 253.244,395.313 253.301 M24.375 258.281 C 24.958 258.883,25.505 259.375,25.591 259.375 C 25.677 259.375,25.271 258.883,24.688 258.281 C 24.104 257.680,23.557 257.188,23.471 257.188 C 23.385 257.188,23.792 257.680,24.375 258.281 M85.137 259.141 L 84.219 260.156 85.234 259.238 C 86.181 258.383,86.394 258.125,86.152 258.125 C 86.098 258.125,85.641 258.582,85.137 259.141 " stroke="none" fill="#848413" fill-rule="evenodd"></path><path id="path5" d="" stroke="none" fill="#747474" fill-rule="evenodd"></path><path id="path6" d="M54.609 174.908 C 54.996 174.983,55.629 174.983,56.016 174.908 C 56.402 174.834,56.086 174.773,55.313 174.773 C 54.539 174.773,54.223 174.834,54.609 174.908 " stroke="none" fill="#3c3c1e" fill-rule="evenodd"></path><path id="path7" d="M150.078 143.653 C 150.379 143.732,150.871 143.732,151.172 143.653 C 151.473 143.574,151.227 143.510,150.625 143.510 C 150.023 143.510,149.777 143.574,150.078 143.653 M84.987 152.578 C 86.282 153.958,86.563 154.206,86.563 153.971 C 86.563 153.921,85.895 153.253,85.078 152.487 L 83.594 151.094 84.987 152.578 M131.705 188.281 C 131.705 195.328,131.746 198.256,131.796 194.787 C 131.847 191.318,131.847 185.552,131.797 181.974 C 131.746 178.396,131.705 181.234,131.705 188.281 M83.892 185.703 L 82.656 187.031 83.984 185.796 C 84.715 185.117,85.313 184.519,85.313 184.468 C 85.313 184.231,85.040 184.468,83.892 185.703 M189.829 202.344 C 189.829 208.875,189.871 211.591,189.921 208.380 C 189.972 205.169,189.972 199.825,189.922 196.505 C 189.871 193.185,189.829 195.813,189.829 202.344 M167.954 220.078 L 166.719 221.406 168.047 220.171 C 169.282 219.022,169.519 218.750,169.282 218.750 C 169.231 218.750,168.633 219.348,167.954 220.078 M215.000 220.938 L 209.219 221.115 214.903 221.183 C 218.431 221.224,220.661 221.131,220.781 220.938 C 220.887 220.766,220.931 220.655,220.878 220.692 C 220.825 220.730,218.180 220.840,215.000 220.938 M235.094 221.171 C 236.779 221.227,239.451 221.227,241.032 221.170 C 242.613 221.114,241.234 221.067,237.969 221.068 C 234.703 221.068,233.410 221.114,235.094 221.171 M81.094 223.438 C 81.940 224.297,82.703 225.000,82.789 225.000 C 82.875 225.000,82.253 224.297,81.406 223.438 C 80.560 222.578,79.797 221.875,79.711 221.875 C 79.625 221.875,80.247 222.578,81.094 223.438 M131.709 249.844 C 131.709 260.328,131.749 264.572,131.797 259.274 C 131.845 253.977,131.845 245.399,131.797 240.212 C 131.749 235.025,131.709 239.359,131.709 249.844 M189.832 253.438 C 189.832 261.945,189.873 265.426,189.922 261.172 C 189.971 256.918,189.971 249.957,189.922 245.703 C 189.873 241.449,189.832 244.930,189.832 253.438 " stroke="none" fill="#2a2a0f" fill-rule="evenodd"></path><path id="path8" d="M387.784 268.535 C 387.923 268.674,388.725 268.742,389.566 268.686 L 391.094 268.584 389.312 268.433 C 388.331 268.349,387.644 268.395,387.784 268.535 M381.177 268.664 C 381.739 268.734,382.583 268.732,383.052 268.661 C 383.522 268.589,383.063 268.533,382.031 268.534 C 381.000 268.536,380.616 268.594,381.177 268.664 " stroke="none" fill="#343434" fill-rule="evenodd"></path></g></svg>